<svg width="274" height="909" viewBox="0 0 274 909" version="1.1" xmlns="http://www.w3.org/2000/svg" xmlns:xlink="http://www.w3.org/1999/xlink">
<title>Group 18</title>
<desc>Created using Figma</desc>
<g id="Canvas" transform="translate(-17043 5380)">
<g id="Group 18">
<g id="FORM VALIDATION">
<use xlink:href="#path0_fill" transform="translate(17043.6 -5379.45)" fill="#333333"/>
<use xlink:href="#path1_fill" transform="translate(17043.6 -5379.45)" fill="#333333"/>
<use xlink:href="#path2_fill" transform="translate(17043.6 -5379.45)" fill="#333333"/>
<use xlink:href="#path3_fill" transform="translate(17043.6 -5379.45)" fill="#333333"/>
<use xlink:href="#path4_fill" transform="translate(17043.6 -5379.45)" fill="#333333"/>
<use xlink:href="#path5_fill" transform="translate(17043.6 -5379.45)" fill="#333333"/>
<use xlink:href="#path6_fill" transform="translate(17043.6 -5379.45)" fill="#333333"/>
<use xlink:href="#path7_fill" transform="translate(17043.6 -5379.45)" fill="#333333"/>
<use xlink:href="#path8_fill" transform="translate(17043.6 -5379.45)" fill="#333333"/>
<use xlink:href="#path9_fill" transform="translate(17043.6 -5379.45)" fill="#333333"/>
<use xlink:href="#path10_fill" transform="translate(17043.6 -5379.45)" fill="#333333"/>
<use xlink:href="#path11_fill" transform="translate(17043.6 -5379.45)" fill="#333333"/>
<use xlink:href="#path12_fill" transform="translate(17043.6 -5379.45)" fill="#333333"/>
<use xlink:href="#path13_fill" transform="translate(17043.6 -5379.45)" fill="#333333"/>
</g>
<g id="FORM VALIDATION">
<use xlink:href="#path14_fill" transform="translate(17043.6 -5379.45)" fill="#FFFFFF"/>
<use xlink:href="#path15_fill" transform="translate(17043.6 -5379.45)" fill="#FFFFFF"/>
<use xlink:href="#path16_fill" transform="translate(17043.6 -5379.45)" fill="#FFFFFF"/>
<use xlink:href="#path17_fill" transform="translate(17043.6 -5379.45)" fill="#FFFFFF"/>
<use xlink:href="#path18_fill" transform="translate(17043.6 -5379.45)" fill="#FFFFFF"/>
<use xlink:href="#path19_fill" transform="translate(17043.6 -5379.45)" fill="#FFFFFF"/>
<use xlink:href="#path20_fill" transform="translate(17043.6 -5379.45)" fill="#FFFFFF"/>
</g>
</g>
</g>
<defs>
<path id="path0_fill" d="M 104.414 624.516L 104.414 651.867L 1.61719 651.867L 1.61719 591.117L 23.9062 591.117L 23.9062 624.516L 43.5234 624.516L 43.5234 593.719L 65.8125 593.719L 65.8125 624.516L 104.414 624.516Z"/>
<path id="path1_fill" d="M 52.875 478.055C 70.1719 478.055 83.3203 482.297 92.3203 490.781C 101.32 499.266 105.82 511.688 105.82 528.047C 105.82 544.172 101.297 556.547 92.25 565.172C 83.2031 573.75 70.0312 578.039 52.7344 578.039C 35.625 578.039 22.5703 573.773 13.5703 565.242C 4.52344 556.664 -9.98853e-16 544.219 0 527.906C 1.00172e-15 511.547 4.47656 499.148 13.4297 490.711C 22.3828 482.273 35.5312 478.055 52.875 478.055ZM 52.875 548.789C 72.75 548.789 82.6875 541.875 82.6875 528.047C 82.6875 521.016 80.2734 515.812 75.4453 512.438C 70.6172 509.016 63.0938 507.305 52.875 507.305C 42.6094 507.305 35.0391 509.039 30.1641 512.508C 25.2422 515.93 22.7812 521.062 22.7812 527.906C 22.7812 541.828 32.8125 548.789 52.875 548.789Z"/>
<path id="path2_fill" d="M 67.0078 431.719L 104.414 431.719L 104.414 459.492L 1.61719 459.492L 1.61719 425.812C 1.61719 397.875 11.7422 383.906 31.9922 383.906C 43.8984 383.906 53.1094 389.719 59.625 401.344L 104.414 371.391L 104.414 402.891L 67.0078 424.688L 67.0078 431.719ZM 46.125 431.719L 46.125 426.516C 46.125 416.812 41.8359 411.961 33.2578 411.961C 26.1797 411.961 22.6406 416.719 22.6406 426.234L 22.6406 431.719L 46.125 431.719Z"/>
<path id="path3_fill" d="M 104.414 317.25L 30.375 338.273L 30.375 338.906C 42.9844 337.922 52.7812 337.43 59.7656 337.43L 104.414 337.43L 104.414 362.039L 1.61719 362.039L 1.61719 325.055L 74.6016 303.609L 74.6016 303.047L 1.61719 282.023L 1.61719 244.969L 104.414 244.969L 104.414 270.492L 59.3438 270.492C 57 270.492 54.3984 270.469 51.5391 270.422C 48.6797 270.328 41.6719 270 30.5156 269.438L 30.5156 270.07L 104.414 290.812L 104.414 317.25Z"/>
<path id="path4_fill" d="M 168.617 839.18L 168.617 808.102L 271.414 841.781L 271.414 874.477L 168.617 908.016L 168.617 876.797L 220.719 862.805C 232.297 859.898 240.359 858.305 244.906 858.023C 241.625 857.695 237.523 857.039 232.602 856.055C 227.68 855.07 223.812 854.203 221 853.453L 168.617 839.18Z"/>
<path id="path5_fill" d="M 271.414 733.852L 252.148 738.914L 252.148 772.312L 271.414 777.516L 271.414 808.031L 168.195 774.492L 168.195 737.438L 271.414 703.477L 271.414 733.852ZM 229.367 744.68L 212.492 749.109C 208.742 750.141 203.891 751.406 197.938 752.906C 191.984 754.359 187.719 755.32 185.141 755.789C 187.531 756.211 191.469 757.055 196.953 758.32C 202.438 759.539 213.242 762.281 229.367 766.547L 229.367 744.68Z"/>
<path id="path6_fill" d="M 271.414 692.297L 168.617 692.297L 168.617 664.523L 248.984 664.523L 248.984 624.938L 271.414 624.938L 271.414 692.297Z"/>
<path id="path7_fill" d="M 271.414 608.484L 168.617 608.484L 168.617 580.57L 271.414 580.57L 271.414 608.484Z"/>
<path id="path8_fill" d="M 217.836 471.023C 234.992 471.023 248.211 475.758 257.492 485.227C 266.773 494.648 271.414 507.914 271.414 525.023L 271.414 558.281L 168.617 558.281L 168.617 522.703C 168.617 506.203 172.836 493.477 181.273 484.523C 189.711 475.523 201.898 471.023 217.836 471.023ZM 218.82 499.852C 209.398 499.852 202.414 501.727 197.867 505.477C 193.32 509.18 191.047 514.828 191.047 522.422L 191.047 530.508L 248.633 530.508L 248.633 524.32C 248.633 515.883 246.195 509.695 241.32 505.758C 236.398 501.82 228.898 499.852 218.82 499.852Z"/>
<path id="path9_fill" d="M 271.414 389.461L 252.148 394.523L 252.148 427.922L 271.414 433.125L 271.414 463.641L 168.195 430.102L 168.195 393.047L 271.414 359.086L 271.414 389.461ZM 229.367 400.289L 212.492 404.719C 208.742 405.75 203.891 407.016 197.938 408.516C 191.984 409.969 187.719 410.93 185.141 411.398C 187.531 411.82 191.469 412.664 196.953 413.93C 202.438 415.148 213.242 417.891 229.367 422.156L 229.367 400.289Z"/>
<path id="path10_fill" d="M 271.414 302.555L 271.414 330.328L 191.328 330.328L 191.328 355.43L 168.617 355.43L 168.617 277.523L 191.328 277.523L 191.328 302.555L 271.414 302.555Z"/>
<path id="path11_fill" d="M 271.414 262.828L 168.617 262.828L 168.617 234.914L 271.414 234.914L 271.414 262.828Z"/>
<path id="path12_fill" d="M 219.875 116.438C 237.172 116.438 250.32 120.68 259.32 129.164C 268.32 137.648 272.82 150.07 272.82 166.43C 272.82 182.555 268.297 194.93 259.25 203.555C 250.203 212.133 237.031 216.422 219.734 216.422C 202.625 216.422 189.57 212.156 180.57 203.625C 171.523 195.047 167 182.602 167 166.289C 167 149.93 171.477 137.531 180.43 129.094C 189.383 120.656 202.531 116.438 219.875 116.438ZM 219.875 187.172C 239.75 187.172 249.688 180.258 249.688 166.43C 249.688 159.398 247.273 154.195 242.445 150.82C 237.617 147.398 230.094 145.688 219.875 145.688C 209.609 145.688 202.039 147.422 197.164 150.891C 192.242 154.312 189.781 159.445 189.781 166.289C 189.781 180.211 199.812 187.172 219.875 187.172Z"/>
<path id="path13_fill" d="M 271.414 0L 271.414 36.4219L 198.992 73.9688L 198.992 74.6016C 210.383 73.7109 219.078 73.2656 225.078 73.2656L 271.414 73.2656L 271.414 97.875L 168.617 97.875L 168.617 61.5938L 240.055 24.1875L 240.055 23.7656C 229.695 24.4219 221.375 24.75 215.094 24.75L 168.617 24.75L 168.617 0L 271.414 0Z"/>
<path id="path14_fill" d="M 67.0078 431.719L 104.414 431.719L 104.414 459.492L 1.61719 459.492L 1.61719 425.812C 1.61719 397.875 11.7422 383.906 31.9922 383.906C 43.8984 383.906 53.1094 389.719 59.625 401.344L 104.414 371.391L 104.414 402.891L 67.0078 424.688L 67.0078 431.719ZM 46.125 431.719L 46.125 426.516C 46.125 416.812 41.8359 411.961 33.2578 411.961C 26.1797 411.961 22.6406 416.719 22.6406 426.234L 22.6406 431.719L 46.125 431.719Z"/>
<path id="path15_fill" d="M 104.414 317.25L 30.375 338.273L 30.375 338.906C 42.9844 337.922 52.7812 337.43 59.7656 337.43L 104.414 337.43L 104.414 362.039L 1.61719 362.039L 1.61719 325.055L 74.6016 303.609L 74.6016 303.047L 1.61719 282.023L 1.61719 244.969L 104.414 244.969L 104.414 270.492L 59.3438 270.492C 57 270.492 54.3984 270.469 51.5391 270.422C 48.6797 270.328 41.6719 270 30.5156 269.438L 30.5156 270.07L 104.414 290.812L 104.414 317.25Z"/>
<path id="path16_fill" d="M 271.414 389.461L 252.148 394.523L 252.148 427.922L 271.414 433.125L 271.414 463.641L 168.195 430.102L 168.195 393.047L 271.414 359.086L 271.414 389.461ZM 229.367 400.289L 212.492 404.719C 208.742 405.75 203.891 407.016 197.938 408.516C 191.984 409.969 187.719 410.93 185.141 411.398C 187.531 411.82 191.469 412.664 196.953 413.93C 202.438 415.148 213.242 417.891 229.367 422.156L 229.367 400.289Z"/>
<path id="path17_fill" d="M 271.414 302.555L 271.414 330.328L 191.328 330.328L 191.328 355.43L 168.617 355.43L 168.617 277.523L 191.328 277.523L 191.328 302.555L 271.414 302.555Z"/>
<path id="path18_fill" d="M 271.414 262.828L 168.617 262.828L 168.617 234.914L 271.414 234.914L 271.414 262.828Z"/>
<path id="path19_fill" d="M 219.875 116.438C 237.172 116.438 250.32 120.68 259.32 129.164C 268.32 137.648 272.82 150.07 272.82 166.43C 272.82 182.555 268.297 194.93 259.25 203.555C 250.203 212.133 237.031 216.422 219.734 216.422C 202.625 216.422 189.57 212.156 180.57 203.625C 171.523 195.047 167 182.602 167 166.289C 167 149.93 171.477 137.531 180.43 129.094C 189.383 120.656 202.531 116.438 219.875 116.438ZM 219.875 187.172C 239.75 187.172 249.688 180.258 249.688 166.43C 249.688 159.398 247.273 154.195 242.445 150.82C 237.617 147.398 230.094 145.688 219.875 145.688C 209.609 145.688 202.039 147.422 197.164 150.891C 192.242 154.312 189.781 159.445 189.781 166.289C 189.781 180.211 199.812 187.172 219.875 187.172Z"/>
<path id="path20_fill" d="M 271.414 0L 271.414 36.4219L 198.992 73.9688L 198.992 74.6016C 210.383 73.7109 219.078 73.2656 225.078 73.2656L 271.414 73.2656L 271.414 97.875L 168.617 97.875L 168.617 61.5938L 240.055 24.1875L 240.055 23.7656C 229.695 24.4219 221.375 24.75 215.094 24.75L 168.617 24.75L 168.617 0L 271.414 0Z"/>
</defs>
</svg>
