<svg width="120" height="186" viewBox="0 0 120 186" version="1.1" xmlns="http://www.w3.org/2000/svg" xmlns:xlink="http://www.w3.org/1999/xlink">
<title>Group</title>
<desc>Created using Figma</desc>
<g id="Canvas" transform="translate(-16436 3970)">
<g id="Group">
<g id="Group">
<g id="Vector">
<use xlink:href="#path0_fill" transform="translate(16477.8 -3895.7)" fill="#310024"/>
</g>
<g id="Vector">
<use xlink:href="#path1_fill" transform="translate(16454.2 -3926.8)" fill="#310024"/>
</g>
<g id="Vector">
<use xlink:href="#path2_fill" transform="translate(16437.4 -3968.5)" fill="#FFFFFF"/>
</g>
<g id="Vector">
<use xlink:href="#path3_fill" transform="translate(16484.8 -3931)" fill="#310024"/>
</g>
<g id="Vector">
<use xlink:href="#path4_fill" transform="translate(16458.7 -3941.4)" fill="#310024"/>
</g>
<g id="Vector">
<use xlink:href="#path5_fill" transform="translate(16488.7 -3949.5)" fill="#310024"/>
</g>
<g id="Vector">
<use xlink:href="#path6_fill" transform="translate(16436 -3970)" fill="#310024"/>
</g>
<g id="Vector">
<use xlink:href="#path7_fill" transform="translate(16487 -3951.01)" fill="#310024"/>
</g>
<g id="Vector">
<use xlink:href="#path8_fill" transform="translate(16483.3 -3932.5)" fill="#310024"/>
</g>
<g id="Vector">
<use xlink:href="#path9_fill" transform="translate(16452.6 -3928.2)" fill="#310024"/>
</g>
<g id="Vector">
<use xlink:href="#path10_fill" transform="translate(16457.1 -3943.1)" fill="#310024"/>
</g>
<g id="Vector">
<use xlink:href="#path11_fill" transform="translate(16476.3 -3897.2)" fill="#310024"/>
</g>
<g id="Vector">
<use xlink:href="#path12_fill" transform="translate(16519.6 -3949.37)" fill="#DAD0CC"/>
</g>
<g id="Vector">
<use xlink:href="#path13_fill" transform="translate(16515.8 -3872.47)" fill="#DAD0CC"/>
</g>
<g id="Vector">
<use xlink:href="#path14_fill" transform="translate(16519.7 -3840.29)" fill="#DAD0CC"/>
</g>
<g id="Group">
<g id="Vector">
<use xlink:href="#path15_fill" transform="translate(16437.6 -3811.28)" fill="#DAD0CC"/>
</g>
<g id="Vector">
<use xlink:href="#path16_fill" transform="translate(16497.5 -3804.34)" fill="#DAD0CC"/>
</g>
<g id="Vector">
<use xlink:href="#path17_fill" transform="translate(16522.9 -3811.1)" fill="#DAD0CC"/>
</g>
<g id="Vector">
<use xlink:href="#path18_fill" transform="translate(16466 -3808.75)" fill="#DAD0CC"/>
</g>
</g>
<g id="Vector">
<use xlink:href="#path19_fill" transform="translate(16482.6 -3926.3)" fill="#DAD0CC"/>
</g>
<g id="Vector">
<use xlink:href="#path20_fill" transform="translate(16452.9 -3912)" fill="#DAD0CC"/>
</g>
<g id="Vector">
<use xlink:href="#path21_fill" transform="translate(16476.9 -3897.43)" fill="#DAD0CC"/>
</g>
<g id="Vector">
<use xlink:href="#path22_fill" transform="translate(16519.6 -3945.7)" fill="#DAD0CC"/>
</g>
<g id="Vector">
<use xlink:href="#path23_fill" transform="translate(16531.8 -3949.53)" fill="#DAD0CC"/>
</g>
<g id="Vector">
<use xlink:href="#path24_fill" transform="translate(16492.9 -3804.8)" fill="#DAD0CC"/>
</g>
<g id="Vector">
<use xlink:href="#path25_fill" transform="translate(16462.5 -3806.94)" fill="#DAD0CC"/>
</g>
<g id="Vector">
<use xlink:href="#path26_fill" transform="translate(16519.8 -3807.07)" fill="#DAD0CC"/>
</g>
<g id="Vector">
<use xlink:href="#path27_fill" transform="translate(16540.6 -3953.91)" fill="#DAD0CC"/>
</g>
</g>
</g>
</g>
<defs>
<path id="path0_fill" d="M 4.32445 3.05176e-06C 4.22445 3.05176e-06 4.12445 3.05176e-06 4.02445 3.05176e-06C 0.824449 0.400003 -0.175551 3.6 0.0244487 6.5C 0.224449 10 2.22445 13.7 5.02445 13.7C 5.42445 13.7 5.72445 13.6 6.12445 13.5C 9.12445 12.6 9.72445 9.3 9.32445 6.6C 8.82445 3.4 6.72445 3.05176e-06 4.32445 3.05176e-06Z"/>
<path id="path1_fill" d="M 10.7 7.62939e-07C 9.5 7.62939e-07 8.3 0.299998 7.1 0.899998C 1.2 3.9 3.8147e-07 8.4 3.8147e-07 11.7C 0.1 18.1 4.8 24.1 9 26C 10.2 26.5 11.4 26.8 12.6 26.8C 15.2 26.8 17.6 25.6 19.4 23.4C 21.8 20.4 22.6 16.4 21.7 12.2C 20.1 4.9 15.6 7.62939e-07 10.7 7.62939e-07Z"/>
<path id="path2_fill" d="M 102.321 7.3C 96.6206 2.7 85.9206 0 73.8206 0C 54.2206 0 27.0206 7.4 14.7206 28.1C -3.77943 59.3 3.32057 91 9.62057 118.9C 14.2206 139 6.32057 152 2.12057 159C 1.12057 160.7 -0.179432 162.9 0.0205681 163.3C 0.520568 163.7 1.12057 163.9 1.72057 163.9C 3.52057 163.9 5.82057 162.6 8.02057 161.3C 10.1206 160.1 12.1206 158.9 13.7206 158.9C 16.4206 158.9 16.6206 160.7 16.9206 163.3C 17.1206 165.3 17.4206 168 18.8206 171.7C 21.2206 178.2 25.8206 183 29.7206 183C 30.5206 183 31.2206 182.8 31.9206 182.4C 34.3206 180.9 34.0206 177.9 33.6206 174C 33.4206 171.6 33.1206 169.2 33.5206 166.7C 34.1206 163.1 35.8206 160.9 38.2206 160.9C 40.6206 160.9 43.3206 163.2 45.7206 167.4C 49.4206 174 59.7206 181.1 65.3206 181.1C 66.5206 181.1 67.4206 180.7 68.0206 180C 70.0206 177.3 69.7206 176.9 68.5206 175.7C 67.8206 175 66.9206 174 66.2206 172.4C 65.3206 170.3 65.3206 168.1 66.3206 166.6C 66.8206 165.8 67.9206 164.8 70.1206 164.8C 72.1206 164.8 74.7206 165.7 77.7206 167.6C 83.4206 171.2 87.0206 173.1 89.4206 173.1C 90.8206 173.1 91.9206 172.3 92.9206 170.6C 94.1206 168.5 93.4206 167.9 91.8206 166.7C 90.5206 165.7 88.8206 164.4 88.2206 161.8C 87.7206 159.7 88.1206 157.7 89.2206 156.3C 90.1206 155.2 91.4206 154.6 92.8206 154.6C 93.9206 154.6 95.6206 155 97.3206 156.7C 99.8206 159.2 103.521 161 106.221 161C 107.021 161 108.121 160.8 108.621 160C 108.921 159.5 109.121 159 108.921 158.6C 108.621 157.3 106.421 156 104.021 154.6L 103.921 154.5C 101.321 152.9 100.021 149.2 100.621 146.8C 101.021 145.3 102.221 144.6 103.721 145C 104.221 145.1 104.621 145.2 105.021 145.2C 105.421 145.2 106.021 145.1 106.221 144.7C 106.521 144.1 106.121 142.4 104.121 139.8C 99.7206 134.1 92.9206 112.4 91.4206 81.8C 90.1206 54.7 98.9206 33.2 103.621 28.3C 104.321 27.5 105.021 27.2 105.621 27.2C 106.621 27.2 108.021 27.3 108.721 28.4C 109.521 29.6 109.021 31.5 108.021 33.9C 107.221 35.9 107.121 39.3 108.321 41.1C 109.321 42.6 111.021 42.5 113.321 41.1C 115.421 39.8 116.721 37 116.921 33.4C 117.321 26.7 113.621 16.3 102.321 7.3ZM 49.6206 25.2C 49.9206 22.7 53.6206 17.7 59.4206 17.4C 63.9206 17.2 68.5206 20.7 70.3206 22.9C 71.2206 24 71.2206 24.6 71.2206 24.9L 71.1206 25.2C 70.9206 26.5 70.5206 28.2 69.1206 29.1C 68.5206 29.4 67.7206 29.2 66.4206 28.7C 65.0206 28.2 63.1206 27.5 60.9206 27.5C 58.2206 27.5 55.9206 28.5 53.8206 30.6C 53.3206 31.1 52.9206 31.2 52.6206 31.2C 52.2206 31.2 51.7206 31.1 51.2206 30.5C 50.2206 29.4 49.4206 26.9 49.6206 25.2ZM 19.7206 33.5C 20.5206 28.5 24.2206 25.5 29.5206 25.5C 32.0206 25.5 34.4206 26.2 35.2206 27.2C 36.4206 28.6 36.2206 30.9 35.4206 32.6C 34.7206 34.2 33.5206 34.9 32.6206 34.5C 31.0206 33.8 29.5206 33.4 28.3206 33.4C 26.1206 33.4 25.1206 34.5 24.4206 35.3C 24.0206 35.7 23.7206 36.1 23.2206 36.1C 23.1206 36.1 23.0206 36.1 22.9206 36.1C 22.8206 36.1 22.6206 36 22.4206 36C 21.5206 35.8 19.4206 35.4 19.7206 33.5ZM 37.2206 66.1C 35.2206 68.6 32.3206 70.1 29.3206 70.1C 27.9206 70.1 26.4206 69.8 25.1206 69.1C 19.8206 66.7 15.3206 59.6 15.2206 53.4C 15.1206 48.2 17.9206 43.8 23.1206 41.3C 24.5206 40.6 25.9206 40.3 27.4206 40.3C 33.1206 40.3 38.1206 45.7 39.9206 53.6C 40.8206 58.2 39.9206 62.7 37.2206 66.1ZM 46.9206 87.8C 46.4206 88 45.9206 88 45.4206 88C 41.7206 88 39.1206 83.6 38.9206 79.4C 38.6206 75 40.7206 71.8 44.2206 71.4C 44.4206 71.4 44.6206 71.4 44.7206 71.4C 48.1206 71.4 50.6206 75.5 51.2206 79.3C 51.6206 82.5 50.8206 86.6 46.9206 87.8ZM 75.7206 63.6C 73.6206 66.7 70.1206 68.3 65.7206 68.3C 64.6206 68.3 63.4206 68.2 62.2206 68C 53.9206 66.7 47.5206 61.3 46.2206 54.5C 45.0206 48.4 48.1206 42.5 54.9206 38.4C 57.5206 36.8 60.2206 36 62.8206 36C 70.0206 36 74.9206 42.3 76.9206 47.6C 78.5206 52.3 78.9206 59 75.7206 63.6Z"/>
<path id="path3_fill" d="M 15.3287 0C 13.0287 0 10.6287 0.700001 8.22873 2.2C 2.02873 6 -0.871272 11.2 0.228728 16.7C 1.42873 22.8 7.42873 27.8 15.0287 29C 16.2287 29.2 17.3287 29.3 18.3287 29.3C 22.3287 29.3 25.2287 27.9 27.1287 25.3C 29.9287 21.2 29.5287 14.9 28.0287 10.7C 26.1287 5.7 21.7287 0 15.3287 0Z"/>
<path id="path4_fill" d="M 1.5 7.4C 1.6 7.4 1.8 7.5 1.9 7.5C 2 7.4 2 7.3 2.1 7.3C 2.9 6.5 4.3 4.9 7.1 4.9C 8.6 4.9 10.2 5.3 12.1 6.2C 12.2 6.2 12.7 5.7 13.1 4.6C 13.5 3.5 13.6 2 12.9 1.2C 12.5 0.699999 10.7 3.8147e-07 8.3 3.8147e-07C 6.1 3.8147e-07 1 0.699999 3.8147e-07 6.7C 3.8147e-07 6.9 0.2 7.1 1.5 7.4Z"/>
<path id="path5_fill" d="M 1.41094 10.8C 1.41094 10.8 1.51094 10.8 1.61094 10.7C 4.01094 8.3 6.71095 7.1 9.81095 7.1C 12.2109 7.1 14.3109 7.8 15.8109 8.4C 16.4109 8.6 17.1109 8.8 17.3109 8.9C 18.1109 8.4 18.3109 7.1 18.5109 6L 18.6109 5.7C 18.4109 4.7 13.4109 0 8.71094 0C 8.61094 0 8.51094 0 8.41094 0C 3.31094 0.2 0.210942 4.6 0.0109421 6.4C -0.0890579 7.6 0.510943 9.7 1.21094 10.6C 1.31094 10.7 1.41094 10.8 1.41094 10.8Z"/>
<path id="path6_fill" d="M 104.763 7.6C 98.6625 2.8 87.9625 0 75.2625 0C 55.2625 0 27.5625 7.6 14.8625 28.9C -3.93749 60.6 3.26251 92.6 9.66251 120.8C 14.0625 140.4 6.46251 153 2.36251 159.8C 0.362509 163.1 -0.73749 164.9 0.56251 166C 1.36251 166.7 2.26251 167 3.26251 167C 5.46251 167 7.86251 165.6 10.2625 164.2C 12.0625 163.1 13.9625 162 15.2625 162C 16.5625 162 16.6625 162.3 16.9625 165C 17.1625 166.9 17.4625 169.9 18.9625 173.7C 21.6625 180.9 26.6625 185.9 31.2625 185.9C 32.3625 185.9 33.3625 185.6 34.2625 185.1C 37.4625 183.2 37.0625 179.3 36.6625 175.3C 36.4625 173 36.1625 170.6 36.5625 168.4C 36.9625 165.6 38.1625 163.9 39.7625 163.9C 41.5625 163.9 43.8625 166 45.9625 169.6C 49.9625 176.6 60.7625 184.1 66.8625 184.1C 68.5625 184.1 69.9625 183.5 70.7625 182.4C 73.2625 179 72.8625 177.9 71.1625 176.2C 70.4625 175.5 69.7625 174.7 69.1625 173.3C 68.4625 171.7 68.4625 169.9 69.0625 168.9C 70.2625 167 73.8625 167.5 78.3625 170.3C 84.4625 174.1 88.0625 176 90.7625 176C 92.7625 176 94.2625 174.9 95.5625 172.7C 97.3625 169.4 95.5625 168.1 94.0625 166.9C 92.7625 166 91.4625 165 90.9625 162.8C 90.5625 161.1 90.8625 159.6 91.6625 158.6C 92.2625 157.8 93.1625 157.4 94.0625 157.4C 95.2625 157.4 96.4625 158 97.5625 159.1C 100.363 161.9 104.363 163.8 107.563 163.8C 109.263 163.8 110.563 163.2 111.263 162.2C 111.863 161.3 111.963 160.5 111.763 159.6C 111.263 157.7 108.963 156.3 106.263 154.6L 106.163 154.5C 103.963 153.2 103.163 150 103.563 148.5C 103.763 147.7 104.263 147.7 104.363 147.7C 104.463 147.7 104.663 147.7 104.763 147.8C 106.863 148.4 108.463 148 109.063 146.7C 109.763 145.3 109.063 143.1 106.763 140.2C 102.463 134.7 95.8625 113.3 94.4625 83C 92.9625 52 104.563 30.1 107.163 29.9C 108.163 29.9 108.863 30.1 109.063 30.4C 109.563 31.2 108.563 33.7 108.163 34.5C 107.163 36.9 107.063 40.8 108.563 43.1C 109.963 45.2 112.563 45.5 115.663 43.5C 118.163 41.9 119.663 38.7 119.863 34.7C 120.263 27.9 116.463 16.9 104.763 7.6ZM 118.463 34.9C 118.263 38.4 116.963 41.2 114.863 42.6C 112.563 44.1 110.863 44.1 109.863 42.6C 108.663 40.8 108.763 37.4 109.563 35.4C 110.563 33 111.063 31.1 110.263 29.9C 109.563 28.9 108.163 28.7 107.163 28.7C 106.563 28.7 105.963 29.1 105.163 29.8C 100.363 34.8 91.6625 56.3 92.9625 83.3C 94.3625 113.9 101.263 135.6 105.663 141.3C 107.663 143.9 108.063 145.6 107.763 146.2C 107.563 146.6 106.963 146.7 106.563 146.7C 106.163 146.7 105.763 146.6 105.263 146.5C 103.763 146.1 102.563 146.8 102.163 148.3C 101.563 150.6 102.763 154.4 105.463 156L 105.563 156.1C 107.863 157.5 110.063 158.8 110.463 160.1C 110.563 160.5 110.463 161 110.163 161.5C 109.663 162.3 108.563 162.5 107.763 162.5C 104.963 162.5 101.363 160.7 98.8625 158.2C 97.0625 156.4 95.4625 156.1 94.3625 156.1C 92.9625 156.1 91.6625 156.7 90.7625 157.8C 89.6625 159.2 89.2625 161.2 89.7625 163.3C 90.3625 166 92.0625 167.2 93.3625 168.2C 94.9625 169.4 95.6625 169.9 94.4625 172.1C 93.4625 173.9 92.4625 174.6 90.9625 174.6C 88.5625 174.6 85.0625 172.7 79.2625 169.1C 76.2625 167.2 73.7625 166.3 71.6625 166.3C 69.5625 166.3 68.4625 167.3 67.8625 168.1C 66.8625 169.6 66.8625 171.8 67.7625 173.9C 68.4625 175.5 69.4625 176.5 70.0625 177.2C 71.2625 178.4 71.5625 178.8 69.5625 181.5C 69.0625 182.2 68.1625 182.6 66.8625 182.6C 61.2625 182.6 51.0625 175.4 47.2625 168.9C 44.8625 164.7 42.2625 162.4 39.7625 162.4C 37.3625 162.4 35.5625 164.5 35.0625 168.2C 34.6625 170.6 34.9625 173.1 35.1625 175.5C 35.5625 179.4 35.8625 182.4 33.4625 183.9C 32.7625 184.3 32.0625 184.5 31.2625 184.5C 27.3625 184.5 22.7625 179.8 20.3625 173.2C 18.9625 169.5 18.6625 166.8 18.4625 164.8C 18.1625 162.3 17.9625 160.4 15.2625 160.4C 13.6625 160.4 11.6625 161.6 9.56251 162.8C 7.36251 164.1 5.06251 165.4 3.26251 165.4C 2.56251 165.4 1.96251 165.2 1.56251 164.8C 1.36251 164.4 2.66251 162.2 3.66251 160.5C 7.86251 153.5 15.6625 140.5 11.1625 120.4C 4.86251 92.5 -2.33749 60.9 16.1625 29.6C 28.5625 8.9 55.7625 1.5 75.2625 1.5C 87.3625 1.5 97.9625 4.2 103.763 8.8C 115.063 17.8 118.763 28.2 118.463 34.9Z"/>
<path id="path7_fill" d="M 3.03405 13.8082C 3.33405 13.8082 3.83405 13.7082 4.23405 13.2082C 6.33405 11.1082 8.63405 10.1082 11.3341 10.1082C 13.4341 10.1082 15.4341 10.8082 16.8341 11.3082C 18.1341 11.8082 19.0341 12.0082 19.5341 11.7082C 20.9341 10.8082 21.3341 9.10821 21.5341 7.80821L 21.6341 7.50821C 21.7341 7.20821 21.6341 6.60821 20.7341 5.50821C 18.9341 3.30821 14.3341 -0.19179 9.83405 0.00820963C 4.03405 0.30821 0.334053 5.30821 0.0340531 7.80821C -0.165947 9.50821 0.534052 12.0082 1.63405 13.1082C 2.13405 13.7082 2.73405 13.8082 3.03405 13.8082ZM 1.53405 7.90821C 1.73405 6.10821 4.83405 1.70821 9.93405 1.50821C 10.0341 1.50821 10.1341 1.50821 10.2341 1.50821C 14.9341 1.50821 20.0341 6.20821 20.1341 7.20821L 20.0341 7.50821C 19.8341 8.50821 19.6341 9.80821 18.8341 10.4082C 18.5341 10.4082 17.9341 10.2082 17.3341 9.90821C 15.8341 9.40821 13.7341 8.60821 11.3341 8.60821C 8.33405 8.60821 5.53405 9.80821 3.13405 12.2082C 3.03405 12.3082 2.93405 12.3082 2.93405 12.3082C 2.93405 12.3082 2.83405 12.3082 2.63405 12.1082C 2.03405 11.2082 1.43405 9.10821 1.53405 7.90821Z"/>
<path id="path8_fill" d="M 16.8478 0C 14.2478 0 11.6478 0.800002 8.94779 2.4C 2.24779 6.5 -0.952214 12.4 0.247786 18.5C 1.54779 25.2 8.04779 30.7 16.2478 32C 17.4478 32.2 18.6478 32.3 19.7478 32.3C 24.1478 32.3 27.6478 30.7 29.7478 27.6C 32.9478 23 32.5478 16.3 30.7478 11.6C 28.9478 6.2 24.0478 0 16.8478 0ZM 28.6478 26.7C 26.8478 29.4 23.8478 30.7 19.8478 30.7C 18.8478 30.7 17.7478 30.6 16.5478 30.4C 8.94778 29.2 2.94779 24.2 1.74779 18.1C 0.647786 12.6 3.54779 7.3 9.74779 3.6C 12.1478 2.1 14.5478 1.4 16.8478 1.4C 23.2478 1.4 27.6478 7.1 29.5478 12C 31.0478 16.3 31.4478 22.6 28.6478 26.7Z"/>
<path id="path9_fill" d="M 24.7026 13.3C 23.0026 5.3 17.9026 -7.62939e-07 12.2026 -7.62939e-07C 10.7026 -7.62939e-07 9.30259 0.399999 7.90259 0.999999C 2.70259 3.6 -0.0974112 7.9 0.00258878 13.1C 0.102589 19.3 4.50259 26.4 9.90259 28.8C 11.3026 29.4 12.7026 29.8 14.1026 29.8C 17.1026 29.8 20.0026 28.3 22.0026 25.8C 24.8026 22.4 25.7026 17.9 24.7026 13.3ZM 21.0026 24.8C 19.2026 27 16.8026 28.2 14.2026 28.2C 13.0026 28.2 11.8026 27.9 10.6026 27.4C 6.40259 25.5 1.70259 19.4 1.60259 13.1C 1.50259 9.8 2.70259 5.3 8.70259 2.3C 9.90259 1.7 11.1026 1.4 12.3026 1.4C 17.3026 1.4 21.7026 6.3 23.3026 13.5C 24.2026 17.8 23.3026 21.9 21.0026 24.8Z"/>
<path id="path10_fill" d="M 2.72907 10.5C 2.92907 10.5 3.12907 10.6 3.22907 10.6C 3.32907 10.6 3.42907 10.6 3.52907 10.6C 4.02907 10.6 4.32907 10.3 4.72907 9.8C 5.42907 9 6.42907 7.9 8.62907 7.9C 9.82907 7.9 11.3291 8.3 12.9291 9C 13.9291 9.4 15.0291 8.7 15.7291 7.1C 16.5291 5.4 16.7291 3.1 15.5291 1.7C 14.6291 0.7 12.2291 -3.8147e-07 9.82907 -3.8147e-07C 4.52907 -3.8147e-07 0.929073 3 0.0290726 8C -0.270927 10 1.82907 10.4 2.72907 10.5ZM 1.52907 8.4C 2.52907 2.3 7.62907 1.7 9.82907 1.7C 12.2291 1.7 14.0291 2.4 14.4291 2.9C 15.1291 3.7 15.0291 5.1 14.6291 6.3C 14.2291 7.4 13.7291 7.8 13.6291 7.9C 11.8291 7.1 10.1291 6.6 8.62907 6.6C 5.82907 6.6 4.32907 8.1 3.62907 9C 3.52907 9.1 3.52907 9.2 3.42907 9.2C 3.32907 9.2 3.12907 9.1 3.02907 9.1C 1.72907 8.8 1.52907 8.6 1.52907 8.4Z"/>
<path id="path11_fill" d="M 5.82837 3.05176e-06C 5.62837 3.05176e-06 5.42837 3.05176e-06 5.32837 3.05176e-06C 1.82837 0.500003 -0.271627 3.6 0.0283733 8C 0.328373 12.2 2.82837 16.6 6.52837 16.6C 7.02837 16.6 7.52837 16.5 8.02837 16.4C 11.9284 15.2 12.7284 11.2 12.2284 7.8C 11.7284 4.1 9.22837 3.05176e-06 5.82837 3.05176e-06ZM 7.62838 15C 7.22838 15.1 6.92837 15.2 6.52837 15.2C 3.72837 15.2 1.72837 11.5 1.52837 8C 1.32837 5.2 2.32837 2 5.52837 1.5C 5.62837 1.5 5.72837 1.5 5.82837 1.5C 8.32837 1.5 10.3284 4.9 10.8284 8.1C 11.2284 10.8 10.5284 14.1 7.62838 15Z"/>
<path id="path12_fill" d="M 26.7494 139.573C 26.4494 138.273 24.2494 136.973 21.8494 135.573L 21.7494 135.473C 19.1494 133.873 17.8494 130.173 18.4494 127.773C 18.8494 126.273 20.0494 125.573 21.5494 125.973C 22.0494 126.073 22.4494 126.173 22.8494 126.173C 23.2494 126.173 23.8494 126.073 24.0494 125.673C 24.3494 125.073 23.9494 123.373 21.9494 120.773C 17.5494 115.073 10.7494 93.3734 9.24941 62.7734C 7.94941 35.6734 16.7494 14.1734 21.4494 9.27344C 22.1494 8.47344 22.8494 8.17344 23.4494 8.17344C 24.4494 8.17344 25.8494 8.27344 26.5494 9.37344C 27.3494 10.5734 26.8494 12.4734 25.8494 14.8734C 25.0494 16.8734 24.9494 20.2734 26.1494 22.0734C 26.3494 22.4734 26.6494 22.6734 26.9494 22.8734C 27.3494 20.8734 28.1494 18.2734 30.0494 16.1734C 33.7494 12.1734 31.7494 2.17344 23.3494 0.173442C 15.0494 -1.82656 5.34941 13.8734 1.64941 26.4734C -2.05059 39.1734 0.949409 103.173 5.94941 112.473C 10.9494 121.773 6.94941 122.773 8.64941 126.773C 10.0494 130.073 21.3494 135.973 24.9494 141.873C 25.4494 141.773 25.9494 141.473 26.2494 141.073C 26.7494 140.473 26.8494 140.073 26.7494 139.573Z"/>
<path id="path13_fill" d="M 4.71529 28.37C 3.71529 23.47 2.41529 18.97 2.31529 13.87C 2.21529 9.37002 2.61529 4.87002 1.81529 0.37002C 1.71529 -0.22998 0.815291 -0.0299811 0.815291 0.470019C 0.315291 8.97002 -1.8847 21.67 4.0153 28.77C 4.2153 29.17 4.81529 28.77 4.71529 28.37Z"/>
<path id="path14_fill" d="M 2.22616 2.39272C 1.92616 1.69272 1.72616 0.992714 1.22616 0.292714C 0.826155 -0.307286 -0.173849 0.0927137 0.0261506 0.792714C 0.226151 1.49271 0.426157 2.29272 0.626157 3.09272C 0.826157 3.69272 1.12616 4.49271 1.72616 4.79271C 2.02616 4.89271 2.32615 4.79271 2.52615 4.49271C 2.82615 3.79271 2.52616 2.99272 2.22616 2.39272Z"/>
<path id="path15_fill" d="M 14.3266 1.88063C 14.0266 1.48063 13.7266 1.08063 13.4266 0.780628C 11.5266 -0.719372 8.6266 0.180625 6.6266 1.48063C 4.6266 2.88063 2.7266 4.68063 0.326599 5.08063C 0.126599 5.58063 -0.0734013 5.98062 0.0265987 6.18062C 0.526599 6.58062 1.1266 6.78063 1.7266 6.78063C 3.5266 6.78063 5.8266 5.48062 8.0266 4.18062C 10.1266 2.98062 12.1266 1.78063 13.7266 1.78063C 13.9266 1.88063 14.1266 1.88063 14.3266 1.88063Z"/>
<path id="path16_fill" d="M 0.150776 5.34213C -0.549224 8.54213 1.25077 12.0421 4.25077 13.4421C 5.65077 14.1421 7.45077 14.4421 8.75077 15.1421C 10.0508 13.1421 9.75078 12.7421 8.65078 11.7421C 7.95078 11.0421 7.05078 10.0421 6.35078 8.44214C 5.45078 6.34214 5.45078 4.14213 6.45078 2.64213C 6.95078 1.84213 8.05077 0.842131 10.2508 0.842131C 9.45077 0.442131 8.45078 0.142128 7.45078 0.0421278C 4.05078 -0.357872 0.850776 2.14213 0.150776 5.34213Z"/>
<path id="path17_fill" d="M 0.538218 2.99999C -0.261782 5.09999 -0.0617807 7.39999 0.438219 9.49999C 0.838219 11.3 1.83822 13.4 3.63822 13.8C 4.73822 14.1 5.93822 13.7 7.03822 13.8C 7.13822 13.6 7.23821 13.5 7.33821 13.3C 8.53821 11.2 7.83821 10.6 6.23821 9.4C 4.93821 8.4 3.23822 7.09999 2.63822 4.49999C 2.23822 2.89999 2.43822 1.29999 3.03822 -6.10352e-06C 1.93822 0.699994 0.938218 1.79999 0.538218 2.99999Z"/>
<path id="path18_fill" d="M 9.86478 1.35001C 9.96478 1.35001 10.1648 1.35001 10.2648 1.35001C 7.66478 -0.349994 3.86478 -0.650006 1.76478 1.64999C -0.235221 3.74999 -0.135221 7.15 0.164779 10.05C 0.464779 13.25 0.864779 16.55 1.16478 19.75C 1.26478 20.95 1.36478 22.15 1.06478 23.35C 1.16478 23.35 1.26478 23.35 1.36478 23.35C 2.16478 23.35 2.86478 23.15 3.56478 22.75C 5.96478 21.25 5.66478 18.25 5.26478 14.35C 5.06478 11.95 4.76478 9.55 5.16478 7.05C 5.66478 3.45 7.46478 1.35001 9.86478 1.35001Z"/>
<path id="path19_fill" d="M 32.7067 16.2C 32.3067 18 31.7067 19.8 30.6067 21.3C 28.5067 24.4 25.0067 26 20.6067 26C 19.5067 26 18.3067 25.9 17.1067 25.7C 8.80674 24.4 2.40673 19 1.10673 12.2C 0.206734 7.8 1.60674 3.6 4.90674 7.62939e-07L 3.80674 0.500001C 1.10674 3.2 0.206736 7.2 0.00673593 11C -0.0932641 15.6 0.906738 20.4 3.90674 23.8C 6.60674 26.9 10.7067 28.5 14.7067 29.4C 18.8067 30.3 23.2067 30.5 26.8067 28.3C 30.3067 26.1 32.3067 21.9 32.5067 17.8C 32.7067 17.3 32.7067 16.8 32.7067 16.2Z"/>
<path id="path20_fill" d="M 24.0394 9.6C 24.5394 7.7 24.6394 5.8 24.4394 3.9C 24.0394 6 23.1394 8 21.7394 9.6C 19.7394 12.1 16.8394 13.6 13.8394 13.6C 12.4394 13.6 10.9394 13.3 9.63939 12.6C 5.13939 10.6 1.33939 5.3 0.139388 7.10543e-15C -0.0606123 1.7 -0.0606119 3.4 0.239388 5.1C 0.939388 8.7 2.73939 12.3 6.23939 14.6C 9.73939 16.9 14.8394 17.7 18.7394 15.8C 21.5394 14.5 23.2394 12.1 24.0394 9.6Z"/>
<path id="path21_fill" d="M 7.5 18.926C 8.5 18.926 9.6 18.826 10.5 18.426C 13.2 17.326 14.5 14.226 14.5 11.326C 14.5 6.62601 11.4 2.12601 7 0.426013C 6.2 0.126013 5.4 -0.0739886 4.6 0.0260114C 4.2 0.126011 3.8 0.326011 3.4 0.526011C 3.8 0.426011 4.2 0.326016 4.6 0.226016C 4.8 0.226016 5 0.226016 5.1 0.226016C 8.5 0.226016 11 4.32601 11.6 8.12601C 12.1 11.526 11.3 15.526 7.4 16.726C 6.9 16.926 6.4 16.926 5.9 16.926C 3.1 16.926 0.999999 14.526 -7.62939e-07 11.626C 0.399999 13.626 1.3 15.526 2.7 17.126C 3.2 17.626 3.7 18.126 4.4 18.526C 5.4 18.826 6.5 18.926 7.5 18.926Z"/>
<path id="path22_fill" d="M 10.0501 -7.62939e-07C 8.55008 0.299999 7.75008 1.6 6.65008 2.7C 5.25008 4.1 3.85008 5.4 2.65008 7C 1.75008 8.2 -0.349916 11.2 0.0500843 12.8C 0.0500843 13 0.250086 13.1 0.450086 13.1C 1.15009 13 1.35009 12.5 1.75009 12C 2.75009 10.6 3.35009 9 4.45009 7.7C 5.65009 6.2 7.15008 4.9 8.55008 3.5C 9.55008 2.6 10.4501 1.8 10.4501 0.400001C 10.5501 0.100001 10.3501 -7.62939e-07 10.0501 -7.62939e-07Z"/>
<path id="path23_fill" d="M 3.14223 0.225472C 2.04223 -0.374528 0.942229 0.325471 0.142229 1.12547C -0.257771 1.62547 0.242225 2.52547 0.942225 2.12547C 1.74222 1.62547 2.54223 1.42547 3.14223 0.925471C 3.44223 0.725471 3.44223 0.325472 3.14223 0.225472Z"/>
<path id="path24_fill" d="M 2.87416 0.00270231C 1.67416 -0.0972977 0.874159 2.6027 0.574159 3.5027C 0.174159 4.6027 -0.625841 7.1027 0.874159 7.7027C 1.17416 7.8027 1.47416 7.60271 1.57416 7.40271C 1.87416 6.90271 1.77416 6.10271 1.87416 5.60271C 2.07416 4.70271 2.27416 3.90271 2.57416 3.10271C 2.97416 2.40271 4.27416 0.102702 2.87416 0.00270231Z"/>
<path id="path25_fill" d="M 1.70198 0.144441C 0.701977 2.14444 -0.698024 4.64444 0.401976 6.84444C 0.501976 7.14444 0.901977 7.04445 1.00198 6.74445C 1.30198 5.74445 1.30198 4.74445 1.50198 3.74445C 1.70198 2.64445 2.00198 1.54444 2.30198 0.444444C 2.40198 0.0444444 1.90198 -0.155559 1.70198 0.144441Z"/>
<path id="path26_fill" d="M 1.98944 2.47499C 1.88944 1.77499 1.98944 0.975003 1.68944 0.375003C 1.38944 -0.124997 0.589443 -0.124997 0.289443 0.375003C -0.110557 1.075 -0.0105542 1.975 0.0894458 2.775C 0.0894458 3.475 0.28944 4.475 0.98944 4.775C 1.28944 4.875 1.58944 4.875 1.78944 4.575C 2.08944 3.975 1.98944 3.17499 1.98944 2.47499Z"/>
<path id="path27_fill" d="M 3.21676 1.0077C 2.71676 0.307699 1.61676 0.207699 0.816759 0.0076993C 0.0167586 -0.0923007 -0.283241 0.807698 0.316759 1.2077C 1.01676 1.7077 2.41675 2.2077 3.11675 1.5077C 3.31675 1.5077 3.31676 1.2077 3.21676 1.0077Z"/>
</defs>
</svg>
