<svg width="149" height="206" viewBox="0 0 149 206" version="1.1" xmlns="http://www.w3.org/2000/svg" xmlns:xlink="http://www.w3.org/1999/xlink">
<title>Group</title>
<desc>Created using Figma</desc>
<g id="Canvas" transform="translate(-16636 4170)">
<g id="Group">
<g id="Group">
<g id="Vector">
<use xlink:href="#path0_fill" transform="translate(16748 -4131.1)" fill="#B6B076"/>
</g>
<g id="Vector">
<use xlink:href="#path1_fill" transform="translate(16737.9 -4055.5)" fill="#B6B076"/>
</g>
<g id="Vector">
<use xlink:href="#path2_fill" transform="translate(16756.8 -4095.1)" fill="#B6B076"/>
</g>
<g id="Vector">
<use xlink:href="#path3_fill" transform="translate(16700.7 -4068.5)" fill="#B6B076"/>
</g>
<g id="Vector">
<use xlink:href="#path4_fill" transform="translate(16720.8 -4033.9)" fill="#D6D1A2"/>
</g>
<g id="Vector">
<use xlink:href="#path5_fill" transform="translate(16670.7 -3992.3)" fill="#B6B076"/>
</g>
<g id="Vector">
<use xlink:href="#path6_fill" transform="translate(16662.9 -4018.5)" fill="#D6D1A2"/>
</g>
<g id="Vector">
<use xlink:href="#path7_fill" transform="translate(16736.2 -4014.6)" fill="#D6D1A2"/>
</g>
<g id="Vector">
<use xlink:href="#path8_fill" transform="translate(16709.3 -4022.6)" fill="#B6B076"/>
</g>
<g id="Vector">
<use xlink:href="#path9_fill" transform="translate(16665.2 -4018.6)" fill="#B6B076"/>
</g>
<g id="Vector">
<use xlink:href="#path10_fill" transform="translate(16666.2 -4008.1)" fill="#D6D1A2"/>
</g>
<g id="Vector">
<use xlink:href="#path11_fill" transform="translate(16681.3 -4009.4)" fill="#B6B076"/>
</g>
<g id="Vector">
<use xlink:href="#path12_fill" transform="translate(16692.4 -4012.6)" fill="#B6B076"/>
</g>
<g id="Vector">
<use xlink:href="#path13_fill" transform="translate(16730.5 -4004.1)" fill="#B6B076"/>
</g>
<g id="Vector">
<use xlink:href="#path14_fill" transform="translate(16670.9 -4014.9)" fill="#B6B076"/>
</g>
<g id="Vector">
<use xlink:href="#path15_fill" transform="translate(16706.3 -4007.2)" fill="#B6B076"/>
</g>
<g id="Vector">
<use xlink:href="#path16_fill" transform="translate(16730.3 -3975)" fill="#B6B076"/>
</g>
<g id="Vector">
<use xlink:href="#path17_fill" transform="translate(16733.8 -3977.1)" fill="#D6D1A2"/>
</g>
<g id="Vector">
<use xlink:href="#path18_fill" transform="translate(16736 -3980.9)" fill="#B6B076"/>
</g>
<g id="Vector">
<use xlink:href="#path19_fill" transform="translate(16737.7 -3990.6)" fill="#D6D1A2"/>
</g>
<g id="Vector">
<use xlink:href="#path20_fill" transform="translate(16736 -3995)" fill="#B6B076"/>
</g>
<g id="Vector">
<use xlink:href="#path21_fill" transform="translate(16734.5 -4006)" fill="#D6D1A2"/>
</g>
<g id="Vector">
<use xlink:href="#path22_fill" transform="translate(16700.3 -4042.9)" fill="#D6D1A2"/>
</g>
<g id="Vector">
<use xlink:href="#path23_fill" transform="translate(16712.9 -4043.5)" fill="#D6D1A2"/>
</g>
<g id="Vector">
<use xlink:href="#path24_fill" transform="translate(16726.1 -4071.88)" fill="#E8DF9F"/>
</g>
<g id="Vector">
<use xlink:href="#path25_fill" transform="translate(16700.7 -4026.8)" fill="#B6B076"/>
</g>
<g id="Vector">
<use xlink:href="#path26_fill" transform="translate(16726.7 -4158.55)" fill="#B6B076"/>
</g>
<g id="Vector">
<use xlink:href="#path27_fill" transform="translate(16744.3 -4084.1)" fill="#D6D1A2"/>
</g>
<g id="Vector">
<use xlink:href="#path28_fill" transform="translate(16759.1 -4114.6)" fill="#B6B076"/>
</g>
<g id="Vector">
<use xlink:href="#path29_fill" transform="translate(16704.5 -4083.8)" fill="#801E0D"/>
</g>
<g id="Vector">
<use xlink:href="#path30_fill" transform="translate(16679.3 -4007.4)" fill="#D6D1A2"/>
</g>
<g id="Vector">
<use xlink:href="#path31_fill" transform="translate(16707 -4144.83)" fill="#D6D1A2"/>
</g>
<g id="Vector">
<use xlink:href="#path32_fill" transform="translate(16702.5 -4168.3)" fill="#D6D1A2"/>
</g>
<g id="Vector">
<use xlink:href="#path33_fill" transform="translate(16693.7 -4131.91)" fill="#D6D1A2"/>
</g>
<g id="Vector">
<use xlink:href="#path34_fill" transform="translate(16694.5 -4107.5)" fill="#D6D1A2"/>
</g>
<g id="Vector">
<use xlink:href="#path35_fill" transform="translate(16690.8 -4070.5)" fill="#B6B076"/>
</g>
<g id="Vector">
<use xlink:href="#path36_fill" transform="translate(16694.4 -4151.78)" fill="#B6B076"/>
</g>
<g id="Vector">
<use xlink:href="#path37_fill" transform="translate(16706.4 -4105.4)" fill="#E8DF9F"/>
</g>
<g id="Vector">
<use xlink:href="#path38_fill" transform="translate(16683.5 -4070.8)" fill="#D6D1A2"/>
</g>
<g id="Vector">
<use xlink:href="#path39_fill" transform="translate(16738.9 -4079.3)" fill="#E8DF9F"/>
</g>
<g id="Vector">
<use xlink:href="#path40_fill" transform="translate(16733.5 -4106.1)" fill="#E8DF9F"/>
</g>
<g id="Vector">
<use xlink:href="#path41_fill" transform="translate(16694 -4119.41)" fill="#B6B076"/>
</g>
<g id="Vector">
<use xlink:href="#path42_fill" transform="translate(16699.8 -4106)" fill="#849381"/>
</g>
<g id="Vector">
<use xlink:href="#path43_fill" transform="translate(16648.3 -4053.92)" fill="#849381"/>
</g>
<g id="Vector">
<use xlink:href="#path44_fill" transform="translate(16700.4 -4037.6)" fill="#B6B076"/>
</g>
<g id="Vector">
<use xlink:href="#path45_fill" transform="translate(16672.6 -4048.3)" fill="#B6B076"/>
</g>
<g id="Vector">
<use xlink:href="#path46_fill" transform="translate(16699.2 -4013.6)" fill="#D6D1A2"/>
</g>
<g id="Vector">
<use xlink:href="#path47_fill" transform="translate(16689.1 -4010.4)" fill="#D6D1A2"/>
</g>
<g id="Vector">
<use xlink:href="#path48_fill" transform="translate(16676.6 -4049.9)" fill="#D6D1A2"/>
</g>
<g id="Vector">
<use xlink:href="#path49_fill" transform="translate(16637.8 -4081.89)" fill="#849381"/>
</g>
<g id="Vector">
<use xlink:href="#path50_fill" transform="translate(16663.4 -4072.61)" fill="#B6B076"/>
</g>
<g id="Vector">
<use xlink:href="#path51_fill" transform="translate(16676.7 -4072)" fill="#B6B076"/>
</g>
<g id="Vector">
<use xlink:href="#path52_fill" transform="translate(16682.1 -4052.3)" fill="#B6B076"/>
</g>
<g id="Vector">
<use xlink:href="#path53_fill" transform="translate(16666.9 -4072.5)" fill="#D6D1A2"/>
</g>
<g id="Vector">
<use xlink:href="#path54_fill" transform="translate(16724.5 -4054.6)" fill="#D6D1A2"/>
</g>
<g id="Vector">
<use xlink:href="#path55_fill" transform="translate(16695.7 -4088.8)" fill="#B6B076"/>
</g>
<g id="Vector">
<use xlink:href="#path56_fill" transform="translate(16704.6 -4056.3)" fill="#D6D1A2"/>
</g>
<g id="Vector">
<use xlink:href="#path57_fill" transform="translate(16735.5 -4054.3)" fill="#B6B076"/>
</g>
<g id="Vector">
<use xlink:href="#path58_fill" transform="translate(16699.3 -4054.8)" fill="#B6B076"/>
</g>
<g id="Vector">
<use xlink:href="#path59_fill" transform="translate(16696.2 -4067.1)" fill="#D6D1A2"/>
</g>
<g id="Vector">
<use xlink:href="#path60_fill" transform="translate(16716.7 -4055.5)" fill="#B6B076"/>
</g>
<g id="Vector">
<use xlink:href="#path61_fill" transform="translate(16694.4 -4053.6)" fill="#D6D1A2"/>
</g>
<g id="Vector">
<use xlink:href="#path62_fill" transform="translate(16714.8 -4079.6)" fill="#E8DF9F"/>
</g>
<g id="Vector">
<use xlink:href="#path63_fill" transform="translate(16636.4 -4169.71)" fill="#310024"/>
</g>
<g id="Vector">
<use xlink:href="#path64_fill" transform="translate(16714.5 -4103.5)" fill="#FFFFFF"/>
</g>
<g id="Vector">
<use xlink:href="#path65_fill" transform="translate(16739.9 -4105.33)" fill="#FFFFFF"/>
</g>
<g id="Group">
<g id="Vector">
<use xlink:href="#path66_fill" transform="translate(16650.1 -4039.81)" fill="#69766A"/>
</g>
<g id="Vector">
<use xlink:href="#path67_fill" transform="translate(16660.3 -4040.9)" fill="#69766A"/>
</g>
</g>
<g id="Group">
<g id="Vector">
<use xlink:href="#path68_fill" transform="translate(16644.6 -4068.97)" fill="#69766A"/>
</g>
<g id="Vector">
<use xlink:href="#path69_fill" transform="translate(16654.1 -4067.1)" fill="#69766A"/>
</g>
</g>
<g id="Vector">
<use xlink:href="#path70_fill" transform="translate(16715.8 -4102.8)" fill="#69766A"/>
</g>
<g id="Vector">
<use xlink:href="#path71_fill" transform="translate(16733.4 -4104.9)" fill="#C2B967"/>
</g>
<g id="Vector">
<use xlink:href="#path72_fill" transform="translate(16707.1 -4105.4)" fill="#C2B967"/>
</g>
<g id="Vector">
<use xlink:href="#path73_fill" transform="translate(16740.8 -4156.27)" fill="#D6D1A2"/>
</g>
<g id="Vector">
<use xlink:href="#path74_fill" transform="translate(16748.2 -4156.27)" fill="#D6D1A2"/>
</g>
<g id="Vector">
<use xlink:href="#path75_fill" transform="translate(16755.5 -4157.2)" fill="#D6D1A2"/>
</g>
<g id="Vector">
<use xlink:href="#path76_fill" transform="translate(16700.7 -4149.57)" fill="#D6D1A2"/>
</g>
<g id="Vector">
<use xlink:href="#path77_fill" transform="translate(16707.4 -4149.34)" fill="#D6D1A2"/>
</g>
<g id="Vector">
<use xlink:href="#path78_fill" transform="translate(16760.7 -4129.98)" fill="#D6D1A2"/>
</g>
<g id="Vector">
<use xlink:href="#path79_fill" transform="translate(16770.2 -4128.84)" fill="#D6D1A2"/>
</g>
<g id="Vector">
<use xlink:href="#path80_fill" transform="translate(16695.9 -4113.11)" fill="#D6D1A2"/>
</g>
<g id="Vector">
<use xlink:href="#path81_fill" transform="translate(16705.5 -4113.74)" fill="#D6D1A2"/>
</g>
<g id="Vector">
<use xlink:href="#path82_fill" transform="translate(16712.9 -4114.4)" fill="#D6D1A2"/>
</g>
<g id="Vector">
<use xlink:href="#path83_fill" transform="translate(16761.8 -4114.48)" fill="#D6D1A2"/>
</g>
<g id="Vector">
<use xlink:href="#path84_fill" transform="translate(16765.4 -4113.44)" fill="#D6D1A2"/>
</g>
<g id="Vector">
<use xlink:href="#path85_fill" transform="translate(16697.1 -4084.13)" fill="#D6D1A2"/>
</g>
<g id="Vector">
<use xlink:href="#path86_fill" transform="translate(16697.8 -4081.64)" fill="#D6D1A2"/>
</g>
<g id="Vector">
<use xlink:href="#path87_fill" transform="translate(16709.9 -4061.57)" fill="#D6D1A2"/>
</g>
<g id="Vector">
<use xlink:href="#path88_fill" transform="translate(16723.2 -4059.76)" fill="#D6D1A2"/>
</g>
<g id="Vector">
<use xlink:href="#path89_fill" transform="translate(16679 -4070.44)" fill="#D6D1A2"/>
</g>
<g id="Vector">
<use xlink:href="#path90_fill" transform="translate(16679.2 -4067.04)" fill="#D6D1A2"/>
</g>
<g id="Vector">
<use xlink:href="#path91_fill" transform="translate(16684.5 -4049.1)" fill="#D6D1A2"/>
</g>
<g id="Vector">
<use xlink:href="#path92_fill" transform="translate(16687.5 -4049.16)" fill="#D6D1A2"/>
</g>
<g id="Vector">
<use xlink:href="#path93_fill" transform="translate(16702.7 -4036.08)" fill="#D6D1A2"/>
</g>
<g id="Vector">
<use xlink:href="#path94_fill" transform="translate(16705.6 -4035.12)" fill="#D6D1A2"/>
</g>
<g id="Vector">
<use xlink:href="#path95_fill" transform="translate(16704.4 -4019.22)" fill="#D6D1A2"/>
</g>
<g id="Vector">
<use xlink:href="#path96_fill" transform="translate(16709.3 -4018.54)" fill="#D6D1A2"/>
</g>
<g id="Vector">
<use xlink:href="#path97_fill" transform="translate(16720.6 -4006.74)" fill="#D6D1A2"/>
</g>
<g id="Vector">
<use xlink:href="#path98_fill" transform="translate(16732.2 -4007.77)" fill="#D6D1A2"/>
</g>
<g id="Vector">
<use xlink:href="#path99_fill" transform="translate(16733.7 -3999.27)" fill="#D6D1A2"/>
</g>
<g id="Vector">
<use xlink:href="#path100_fill" transform="translate(16731.5 -3971.4)" fill="#D6D1A2"/>
</g>
<g id="Vector">
<use xlink:href="#path101_fill" transform="translate(16668.4 -4015.92)" fill="#D6D1A2"/>
</g>
<g id="Vector">
<use xlink:href="#path102_fill" transform="translate(16672.7 -4008.97)" fill="#D6D1A2"/>
</g>
<g id="Vector">
<use xlink:href="#path103_fill" transform="translate(16661.5 -4051.27)" fill="#A6AFA1"/>
</g>
<g id="Vector">
<use xlink:href="#path104_fill" transform="translate(16652.8 -4079.11)" fill="#A6AFA1"/>
</g>
<g id="Vector">
<use xlink:href="#path105_fill" transform="translate(16653.3 -4074.01)" fill="#A6AFA1"/>
</g>
<g id="Vector">
<use xlink:href="#path106_fill" transform="translate(16725.5 -4096.78)" fill="#69766A"/>
</g>
<g id="Vector">
<use xlink:href="#path107_fill" transform="translate(16729.2 -4096.18)" fill="#69766A"/>
</g>
<g id="Vector">
<use xlink:href="#path108_fill" transform="translate(16662.4 -4041.81)" fill="#69766A"/>
</g>
<g id="Vector">
<use xlink:href="#path109_fill" transform="translate(16667.9 -4043.01)" fill="#69766A"/>
</g>
<g id="Vector">
<use xlink:href="#path110_fill" transform="translate(16656.4 -4068.5)" fill="#69766A"/>
</g>
<g id="Vector">
<use xlink:href="#path111_fill" transform="translate(16710.2 -4164.02)" fill="#EEEBD6"/>
</g>
<g id="Vector">
<use xlink:href="#path112_fill" transform="translate(16726.6 -4164.94)" fill="#EEEBD6"/>
</g>
<g id="Vector">
<use xlink:href="#path113_fill" transform="translate(16733.4 -4140.66)" fill="#EEEBD6"/>
</g>
<g id="Vector">
<use xlink:href="#path114_fill" transform="translate(16741.8 -4140.76)" fill="#EEEBD6"/>
</g>
<g id="Vector">
<use xlink:href="#path115_fill" transform="translate(16696.9 -4128.12)" fill="#EEEBD6"/>
</g>
<g id="Vector">
<use xlink:href="#path116_fill" transform="translate(16704.6 -4129.15)" fill="#EEEBD6"/>
</g>
<g id="Vector">
<use xlink:href="#path117_fill" transform="translate(16711 -4128.9)" fill="#EEEBD6"/>
</g>
<g id="Vector">
<use xlink:href="#path118_fill" transform="translate(16698.3 -4095.03)" fill="#EEEBD6"/>
</g>
<g id="Vector">
<use xlink:href="#path119_fill" transform="translate(16711.4 -4086.3)" fill="#EEEBD6"/>
</g>
<g id="Vector">
<use xlink:href="#path120_fill" transform="translate(16746.7 -4089.73)" fill="#EEEBD6"/>
</g>
<g id="Vector">
<use xlink:href="#path121_fill" transform="translate(16754.8 -4093.01)" fill="#EEEBD6"/>
</g>
<g id="Vector">
<use xlink:href="#path122_fill" transform="translate(16758.1 -4075.68)" fill="#EEEBD6"/>
</g>
<g id="Vector">
<use xlink:href="#path123_fill" transform="translate(16763.3 -4076.24)" fill="#EEEBD6"/>
</g>
<g id="Vector">
<use xlink:href="#path124_fill" transform="translate(16678.9 -4047.7)" fill="#EEEBD6"/>
</g>
<g id="Vector">
<use xlink:href="#path125_fill" transform="translate(16671.5 -4070.98)" fill="#EEEBD6"/>
</g>
<g id="Vector">
<use xlink:href="#path126_fill" transform="translate(16686.6 -4069.62)" fill="#EEEBD6"/>
</g>
<g id="Vector">
<use xlink:href="#path127_fill" transform="translate(16697.3 -4061.86)" fill="#EEEBD6"/>
</g>
<g id="Vector">
<use xlink:href="#path128_fill" transform="translate(16695.8 -4050.6)" fill="#EEEBD6"/>
</g>
<g id="Vector">
<use xlink:href="#path129_fill" transform="translate(16697.3 -4047.66)" fill="#EEEBD6"/>
</g>
<g id="Vector">
<use xlink:href="#path130_fill" transform="translate(16708.4 -4054.05)" fill="#EEEBD6"/>
</g>
<g id="Vector">
<use xlink:href="#path131_fill" transform="translate(16711.3 -4053.25)" fill="#EEEBD6"/>
</g>
<g id="Vector">
<use xlink:href="#path132_fill" transform="translate(16733.3 -4035.5)" fill="#EEEBD6"/>
</g>
<g id="Vector">
<use xlink:href="#path133_fill" transform="translate(16741.8 -4037.87)" fill="#EEEBD6"/>
</g>
<g id="Vector">
<use xlink:href="#path134_fill" transform="translate(16731.3 -4039.7)" fill="#EEEBD6"/>
</g>
<g id="Vector">
<use xlink:href="#path135_fill" transform="translate(16738.6 -4023.16)" fill="#EEEBD6"/>
</g>
<g id="Vector">
<use xlink:href="#path136_fill" transform="translate(16743.8 -4025.9)" fill="#EEEBD6"/>
</g>
<g id="Vector">
<use xlink:href="#path137_fill" transform="translate(16745.5 -4008.8)" fill="#EEEBD6"/>
</g>
<g id="Vector">
<use xlink:href="#path138_fill" transform="translate(16745.2 -4000.7)" fill="#EEEBD6"/>
</g>
<g id="Vector">
<use xlink:href="#path139_fill" transform="translate(16740.2 -3995.73)" fill="#EEEBD6"/>
</g>
<g id="Vector">
<use xlink:href="#path140_fill" transform="translate(16746.5 -3985.08)" fill="#EEEBD6"/>
</g>
<g id="Vector">
<use xlink:href="#path141_fill" transform="translate(16691.7 -4005.25)" fill="#EEEBD6"/>
</g>
<g id="Vector">
<use xlink:href="#path142_fill" transform="translate(16682.5 -4000.66)" fill="#EEEBD6"/>
</g>
<g id="Vector">
<use xlink:href="#path143_fill" transform="translate(16669 -4004)" fill="#EEEBD6"/>
</g>
<g id="Vector">
<use xlink:href="#path144_fill" transform="translate(16664.1 -4015.5)" fill="#EEEBD6"/>
</g>
<g id="Vector">
<use xlink:href="#path145_fill" transform="translate(16702 -4010.46)" fill="#EEEBD6"/>
</g>
<g id="Vector">
<use xlink:href="#path146_fill" transform="translate(16735.6 -3975.52)" fill="#EEEBD6"/>
</g>
</g>
</g>
</g>
<defs>
<path id="path0_fill" d="M 0 1.7931C 10.1 4.5931 21.4 8.9931 33.2 16.0931C 33.9 11.0931 34.3 6.0931 34.3 1.2931C 17.6 -1.5069 4.1 0.993096 0 1.7931Z"/>
<path id="path1_fill" d="M 7.5 1.4C 6.2 5.5 3.4 8.5 1.52588e-06 10.7C 1.5 10.9 3.7 11.1 6.1 11.2C 6.4 10.9 6.8 10.9 7.1 11.2C 9.8 11.3 12.5 11.2 14.5 10.8C 14.1 5.4 13.5 1.2 13.3 -3.05176e-06C 11.5 0.399997 9.6 0.799997 7.6 0.999997C 7.6 1.2 7.6 1.3 7.5 1.4Z"/>
<path id="path2_fill" d="M 2 11C 2.1 11.2 2.2 11.4 2.2 11.6C 2.2 11.7 1.7 14.3 3.05176e-06 17.6C 2.6 17.5 9.4 16.3 17.9 9.1C 18 9 18.2 8.9 18.4 8.9C 18.8 7.4 19.1 5.8 19.5 4.1C 19.8 2.8 20.2 1.4 20.5 -1.52588e-06C 15.6 4.1 7.8 8.2 2 11Z"/>
<path id="path3_fill" d="M 55.2 3.6C 47.6 3.6 40.9 2.8 40.5 2.8C 40.3 2.8 40.1 2.7 40 2.5C 38.3 2.8 36.4 3 34.3 3C 32.9 3 31.5 2.9 29.9 2.8C 25.1 2.3 21.1 1.3 17.8 -3.05176e-06C 17.7 0.0999969 17.6 0.100003 17.5 0.100003C 13.5 1.2 3.2 4.2 -3.05176e-06 5.1C 3.3 8.5 9 10.7 19 11.9C 25.9 12.7 31.4 13.1 36.3 13.1C 49.7 13.1 59 10 65.2 3.1C 62 3.5 58.5 3.6 55.2 3.6Z"/>
<path id="path4_fill" d="M 22.2 5.80001C 22.3 6.10001 22.2 6.3 22 6.5C 21.9 6.6 13.2 15.7 3.05176e-06 22.3C 6.5 21.4 19.2 18.6 29.7 10.2C 30 9.9 30.5 10 30.8 10.3C 30.8 10.4 30.9 10.4 30.9 10.5C 31.5 7.3 31.8 3.6 31.9 3.05176e-06C 28.9 2.3 25.6 4.20001 22.2 5.80001Z"/>
<path id="path5_fill" d="M 7.62939e-07 -6.10352e-06C 2.1 2.89999 3.8 4.29999 5.3 4.49999L 5.4 4.49999C 6.5 4.49999 10 3.40001 14.5 1.70001C 9.9 1.00001 2.9 0.299994 7.62939e-07 -6.10352e-06Z"/>
<path id="path6_fill" d="M 4.69559 -3.05176e-06C 3.29559 0.299997 2.09559 1.10001 1.29559 2.40001C -0.304409 5.00001 -0.404411 8.99999 0.895589 13.2C 1.39559 8.29999 3.69559 2.5 4.69559 -3.05176e-06Z"/>
<path id="path7_fill" d="M -3.05176e-06 10.6C 3.5 10.4 9.9 9.7 14.9 7.1C 14.5 4.2 14.1 1.70001 13.8 6.10352e-06C 10.9 4.40001 6 8.2 -3.05176e-06 10.6Z"/>
<path id="path8_fill" d="M 41.3 3.50001C 41.7 2.40001 42 1.30001 42.3 6.10352e-06C 42.3 6.10352e-06 42.3 0.0999969 42.2 0.0999969C 27.7 11.9 9 12.9 7.5 13C 5.1 14 2.6 14.9 3.05176e-06 15.7C 0.400003 15.9 0.700002 16.1 1.1 16.3C 8.5 20.2 17.7 20.5 26.2 17.2C 33.6 14.4 39.2 9.20001 41.3 3.50001Z"/>
<path id="path9_fill" d="M 0.109809 16.9C 0.909809 14.7 2.60981 11.1 4.20981 8.1C 4.10981 7.8 4.30981 7.49999 4.60981 7.29999C 5.90981 4.89999 7.00981 2.9 7.40981 2.2C 6.60981 1 5.60981 0.200006 4.10981 6.10352e-06C 3.10981 2.20001 -0.690191 11.8 0.109809 16.9Z"/>
<path id="path10_fill" d="M 3.6 6.10352e-06C 1.8 3.50001 0.299999 6.9 0.0999992 8.1C 0.0999992 8.2 0.100001 8.3 7.62939e-07 8.4C 1.2 10.7 2.3 12.6 3.3 14.2C 3.9 14.2 5.5 14.4 7.5 14.6C 5.9 11.4 4.3 3.90001 3.6 6.10352e-06Z"/>
<path id="path11_fill" d="M 6.4 3.05176e-06C 4 0.700003 1.7 1.3 -7.62939e-07 1.7C 3.6 7 7.5 12.5 9.6 14.7C 7.9 8 6.6 1.3 6.4 3.05176e-06Z"/>
<path id="path12_fill" d="M 11.8 13C 8.8 9.50001 5.9 1.40001 5.4 6.10352e-06C 3.9 0.500006 2 1.1 1.52588e-06 1.7C 1.6 4 6.8 11.3 10.4 13.4C 10.5 13.5 10.6 13.6 10.7 13.8C 11.1 13.6 11.6 13.3 12 13.1C 11.9 13.1 11.8 13.1 11.8 13Z"/>
<path id="path13_fill" d="M 16 6.10352e-06C 10.6 1.50001 5.3 1.6 3.6 1.6C 3.3 1.6 3.1 1.6 3.1 1.6C 2.8 1.6 2.6 1.4 2.4 1.2C 1.6 1.4 0.8 1.59999 1.42109e-14 1.79999C 1 4.69999 2.3 8.09999 3.4 11.3C 7.8 7.89999 13.7 2.40001 16 6.10352e-06Z"/>
<path id="path14_fill" d="M 1.52588e-06 4.59999C 0.400002 7.09999 2.5 18.4 4.6 21.3C 4.7 21.4 4.7 21.5 4.7 21.6C 6.7 21.8 9 22.1 11.2 22.3C 9.2 18.3 7.3 9.7 6.8 7.5C 5.3 7.1 4.5 5.10001 3.7 2.80001C 3.3 1.90001 3 0.900003 2.6 3.05176e-06C 1.8 1.3 0.900002 2.89999 1.52588e-06 4.59999Z"/>
<path id="path15_fill" d="M 3.05176e-06 0C 3.05176e-06 2 0.3 4.6 1.2 5.2C 1.3 5.3 1.4 5.4 1.5 5.5C 2.7 4.6 3.8 3.79999 4.5 2.89999L 4.6 2.8C 4.2 2.6 3.8 2.4 3.4 2.2C 2.1 1.6 1 0.8 3.05176e-06 0Z"/>
<path id="path16_fill" d="M 2.30735 -3.05176e-06C 0.607346 1.9 -0.592654 4 0.307346 6.1C 0.907346 7.5 1.80735 8.5 3.00735 9C 5.30735 9.9 8.60735 9.19999 11.6073 8.19999C 5.20735 6.59999 3.00735 2.1 2.30735 -3.05176e-06Z"/>
<path id="path17_fill" d="M 15.8 5.79999C 7.8 5.79999 2 0.900006 1 6.10352e-06C 0.700003 0.300006 0.300003 0.6 3.05176e-06 0.9C 0.200003 1.8 1.6 7.8 9.7 9.2C 9.9 9.2 10.1 9.4 10.2 9.6C 10.7 9.4 11.2 9.20001 11.6 9.00001C 14.1 7.90001 15.9 6.89999 17.1 5.79999C 16.7 5.69999 16.2 5.79999 15.8 5.79999Z"/>
<path id="path18_fill" d="M 6.5 3.09999C 3.4 3.09999 1.2 2.50001 0.5 2.30001C 0.3 2.50001 0.1 2.60001 0 2.80001C 1.3 3.90001 7.7 9.1 16.1 7.9C 16.3 7.9 16.4 7.9 16.6 8C 17.6 6.8 18.1 5.5 18.4 4C 18.5 3.4 18.5 1.9 18.4 3.05176e-06C 14 2.4 9.7 3.09999 6.5 3.09999Z"/>
<path id="path19_fill" d="M 0.600003 9.79999C 0.500003 10.1 0.299997 10.4 -3.05176e-06 10.7C 2.5 11.2 9.2 12.2 16.1 8.1C 16.2 8 16.3 8.00001 16.4 8.00001C 16.2 5.70001 15.9 2.90001 15.6 6.10352e-06C 13.7 2.00001 8.9 6.39999 0.600003 9.79999Z"/>
<path id="path20_fill" d="M 17.1 2.40001C 17 1.60001 16.9 0.799997 16.8 -3.05176e-06C 11.5 6.3 1.8 7.6 0 7.8C 0.8 10 1.5 11.8 1.9 12.7C 12.1 8.49999 16.9 2.70001 17.1 2.40001Z"/>
<path id="path21_fill" d="M 0 14.7C 0.3 15.7 0.7 16.6 1 17.4L 1.1 17.4C 1.2 17.4 12.7 16.3 17.8 9.19999C 17.9 9.09999 18 9 18 9C 17.6 5.9 17.2 2.8 16.8 -3.05176e-06C 16 0.399997 15.2 0.800003 14.3 1.1C 13.7 3 4.1 11.5 0 14.7Z"/>
<path id="path22_fill" d="M 0.241421 16.4C 0.141421 16.4 0.141421 16.4 0.0414206 16.4C -0.0585794 17.9 0.0414229 19.5 0.141423 21.1C 3.84142 21.3 33.4414 22.3 52.1414 7.5C 52.2414 7.4 52.3414 7.4 52.4414 7.4C 52.4414 4.8 52.3414 2.3 52.1414 3.05176e-06C 50.5414 0.300003 48.5414 0.399997 46.5414 0.399997C 45.7414 0.399997 44.9414 0.399997 44.2414 0.399997C 28.5414 15.7 6.44142 16.6 1.34142 16.6C 0.64142 16.4 0.241421 16.4 0.241421 16.4Z"/>
<path id="path23_fill" d="M 4.1 5C 3 5.1 1.6 5.3 1.52588e-06 5.5C 2.1 6.8 7.9 9.9 15.8 9.6C 20.5 7.5 25.3 4.6 29.6 0.600003C 26.3 0.400003 23.6 0.0999969 22.9 -3.05176e-06C 15.1 4.1 5.7 4.9 4.1 5Z"/>
<path id="path24_fill" d="M 9.7 0.273626C 7.9 -0.226374 2.6 0.0736258 1.9 0.273626C 1.6 0.473626 0.699998 2.37363 -1.52588e-06 3.97363C 1.4 4.27363 3 4.47363 4.6 4.67363C 7.7 4.97363 10.4 4.97363 12.8 4.67363C 12.7 4.57363 12.6 4.47362 12.6 4.37362C 12.1 2.97362 10.8 0.673626 9.7 0.273626Z"/>
<path id="path25_fill" d="M 3.6 6.4C 1.9 6.4 0.699997 6.4 -3.05176e-06 6.3C 0.699997 10.9 2.7 15.5 7.2 18.9C 7.3 18.8 7.4 18.6 7.6 18.6C 23.3 14.2 35.4 3.89999 39.6 -6.10352e-06C 25.8 5.69999 10.8 6.4 3.6 6.4Z"/>
<path id="path26_fill" d="M 44.6 1.04913C 21.8 -2.95087 3.5 5.64913 -3.05176e-06 7.44913C 5.3 8.74913 11.2 10.7491 17.3 13.8491C 17.3 13.8491 17.3 13.8491 17.4 13.9491C 29.1 12.0491 41.6 11.4491 53.3 13.6491C 52.1 10.1491 50.5 6.84913 48.1 3.84913C 47.2 2.74913 46.3 1.74913 45.2 0.749128C 45.1 0.949128 44.9 1.04913 44.6 1.04913Z"/>
<path id="path27_fill" d="M 3.05176e-06 17.2C 5 17.6 15.4 18.3 23 16.9C 26.3 12.6 28.7 7 30.3 -1.52588e-06C 21.3 7.3 14.4 8.1 11.8 8.1C 11.7 8.1 11.7 8.1 11.6 8.1C 9.4 11.5 5.9 15.2 3.05176e-06 17.2Z"/>
<path id="path28_fill" d="M 21.7 1.2C 21 0.799999 20.3 0.399998 19.6 -1.52588e-06C 19.1 0.699998 17.5 2.6 15.1 5.1C 15.1 5.2 15.2 5.4 15.1 5.5C 15.1 5.7 11.8 18.9 -1.52588e-06 28.6C 6.3 25.5 14.6 21.1 18.6 16.9C 18.6 16.9 18.6 16.9 18.7 16.9C 19.9 11.9 21 6.6 21.8 1.2C 21.8 1.2 21.8 1.2 21.7 1.2Z"/>
<path id="path29_fill" d="M 45.2 3.8C 45.2 4.7 45.4 9.1 43.5 10.3C 41.9 11.4 41 12 38.1 12.3C 38 12.3 37.9 12.3 37.8 12.3C 34.8 12.3 33 7.8 32.8 7.3L 32.8 7.2C 31.4 7.3 30 7.4 28.6 7.4C 26.4 7.4 24.2 7.2 22 6.9C 22 7 22 7 22 7.1C 21.8 7.5 20.2 10.6 17.7 10.9C 17.3 10.9 16.9 11 16.5 11C 14.5 11 12.3 10.5 10.4 9.5C 7.8 8.2 8.9 4 9 3.9C 9 3.8 9.1 3.8 9.1 3.7C 5.7 2.5 2.7 1.2 0 1.52588e-06C 0.7 2.4 4.2 11.9 20.1 15.6L 20.1 15.5C 21.2 12.7 22.2 11.1 22.9 10.8C 23.8 10.5 29.5 10.2 31.5 10.8C 33.6 11.4 35.3 15.3 35.4 15.7C 35.5 15.9 35.4 16.2 35.3 16.4C 49.4 14.1 52.3 2.2 52.7 0.199998C 49.3 1.8 46.9 2.8 46.6 2.9C 46.3 3.2 45.7 3.5 45.2 3.8Z"/>
<path id="path30_fill" d="M 0.400001 3.05176e-06C 0.200001 3.05176e-06 0.0999992 -6.10203e-06 -7.62939e-07 0.0999939C 0.599999 2.89999 2.8 12.3 4.7 15.1C 5.9 15.3 7 15.4 8 15.6C 8.2 15.6 8.3 15.7 8.4 15.9C 9.4 15.5 10.4 15.1 11.5 14.6C 8.8 12.3 3.6 4.9 0.400001 3.05176e-06Z"/>
<path id="path31_fill" d="M 75.2 13.529C 75.1 9.32899 74.5 5.32898 73.4 1.52898C 47.2 -3.67102 17 5.52898 2.84217e-14 12.129C 7.2 11.229 21.2 10.529 38.8 15.029C 38.9 14.729 39 14.529 39.3 14.429C 39.5 14.329 55.1 10.229 75.2 13.529Z"/>
<path id="path32_fill" d="M 22.4 16.8C 22.4 16.6 22.5 16.4 22.8 16.2C 23 16.1 42.5 5.1 67.8 9C 60.4 3 49.4 -2.38419e-08 35.1 -2.38419e-08C 33.6 -2.38419e-08 31.9 0 30.3 0.1C 18.2 0.6 8.7 4.7 2.3 12.3C 1.5 13.3 0.7 14.3 -1.42109e-14 15.4C 2.8 15.1 11.3 14.4 22.4 16.8Z"/>
<path id="path33_fill" d="M 8.26875 1.60163C 8.06875 1.70163 7.86875 1.60163 7.66875 1.50163C 4.06875 3.00163 1.56875 4.20163 0.468751 4.70163C -0.0312492 9.80163 -0.131248 15.3016 0.168752 21.4016C 3.76875 19.1016 29.8687 4.40163 80.1687 14.6016C 40.2687 -6.59837 8.66875 1.50163 8.26875 1.60163Z"/>
<path id="path34_fill" d="M 1.7 17.4C 2 17.6 28.6 35.4 50.8 27.6C 68.9 21.3 75.8 5.6 77.7 7.62939e-07C 69.4 8.2 54.3 20.3 36.2 20.9C 35.6 20.9 35 20.9 34.3 20.9C 23.4 20.9 9.3 18.1 -1.42109e-14 5.7C 0.1 6.9 0.200002 8.2 0.400002 9.5C 0.700002 12.3 0.9 14.9 1 17.3C 1.3 17.3 1.5 17.3 1.7 17.4Z"/>
<path id="path35_fill" d="M 1.63714 14.9C 2.63714 14.9 3.53714 14.9 4.23714 14.9C 3.23714 11.2 4.43714 1.9 4.53714 1.5C 4.53714 1.2 4.73714 0.999998 5.03714 0.899998C 5.03714 0.699998 4.93714 0.599998 4.93714 0.399998C 4.13714 0.299998 2.43714 0.199997 0.237143 -3.05176e-06C -0.162857 3.7 -0.262855 12.2 1.63714 14.9Z"/>
<path id="path36_fill" d="M 47.2 7.57481C 25.7 -2.82519 7.5 0.474812 7.3 0.574812C 7.2 0.574812 7.1 0.574812 7 0.574812C 3.4 6.47481 1.1 13.8748 1.52588e-06 22.8748C 5.3 20.3748 24.6 11.6748 47.2 7.57481Z"/>
<path id="path37_fill" d="M 1.52588e-06 4.3C 0.100002 4.4 0.1 4.5 0.1 4.6C 0.2 5 2.7 13.4 10.6 11.5C 17.4 9.8 17.4 2.2 17.2 3.05176e-06C 15.8 0.200003 14.5 0.400002 13.3 0.600002C 13.7 0.700002 14 0.800003 14.2 1C 14.9 2.3 15.2 5.9 10.9 6.5C 6.7 7.1 6.2 3.8 6.3 2.2C 3.9 2.9 1.8 3.7 1.52588e-06 4.3Z"/>
<path id="path38_fill" d="M 7.2 15.3C 5.3 11.2 5.8 2.4 6 0.299997C 5 0.199997 3.9 0.100002 2.7 1.52588e-06C 2.5 0.500002 -0.400002 9 0.0999985 15C 0.0999985 15.2 0.1 15.3 0 15.4C 2.4 15.3 4.9 15.3 7.2 15.3Z"/>
<path id="path39_fill" d="M 1.52588e-06 2.5C 0.500002 3.7 2 6.4 3.6 6.3C 6.1 6.1 6.8 5.6 8.3 4.6C 9.1 4.1 9.3 1.7 9.3 1.52588e-06C 8.5 0.300002 7.7 0.700003 6.8 0.900003C 4.6 1.6 2.3 2.2 1.52588e-06 2.5Z"/>
<path id="path40_fill" d="M 4.9725 0.199999C 3.3725 0.0999992 1.7725 0.0999985 0.172502 -1.52588e-06C -0.0274984 1.4 -0.427497 5.5 1.5725 8.4C 2.8725 10.2 4.8725 11.3 7.5725 11.6C 16.3725 12.7 19.2725 6.6 20.2725 2.9C 20.2725 2.9 20.2725 2.8 20.3725 2.8C 18.4725 2.3 16.6725 1.8 14.7725 1.4C 15.0725 3.4 14.1725 7 9.37251 6.6C 3.97251 6.2 4.3725 2.1 4.9725 0.199999C 4.9725 0.199999 4.8725 0.199999 4.9725 0.199999Z"/>
<path id="path41_fill" d="M 83.2 4.20628C 83.1 4.20628 82.9 4.30628 82.8 4.20628C 27.2 -7.99372 0.599999 10.2063 0.299999 10.4063C 0.199999 10.5063 0.1 10.5063 1.42109e-14 10.5063C 0.1 12.0063 0.199999 13.5063 0.299999 15.1063C 0.399999 15.1063 0.499998 15.2063 0.599998 15.2063C 0.799998 15.3063 0.899999 15.5063 1.3 16.1063C 2.4 17.6063 3.5 18.9063 4.7 20.1063C 7.1 18.7063 35.5 3.60627 69.2 17.8063C 76.7 12.0063 81.7 6.00628 83.2 4.20628Z"/>
<path id="path42_fill" d="M 30.9 17.9C 43.1 17.5 53.9 11.7 62.1 5.5C 59.8 4.6 57.6 3.8 55.4 3.1C 55.4 3.1 55.4 3.1 55.4 3.2C 53.8 9.6 49.4 13.2 43.3 13.2C 42.6 13.2 41.9 13.2 41.1 13.1C 38 12.7 35.6 11.4 34.1 9.3C 31.8 6 32.1 1.8 32.4 7.62939e-07C 29.9 7.62939e-07 27.6 0.199997 25.3 0.499997C 25.5 3 25.5 11.7 17.5 13.7C 16.6 13.9 15.7 14 14.9 14C 7.6 14 5.3 5.8 5.2 5.7C 5.2 5.6 5.2 5.6 5.2 5.5C 2.6 6.6 0.799999 7.5 -7.62939e-07 7.9C 9.3 16.5 21.6 18.2 30.9 17.9Z"/>
<path id="path43_fill" d="M 22.8392 8.3125C 22.0392 8.0125 20.5392 7.4125 19.3392 7.2125C 17.9392 7.0125 17.3392 5.3125 16.7392 3.5125C 16.3392 2.2125 15.7392 0.512498 15.0392 0.312498C 12.9392 -0.187502 11.2392 -0.0874985 10.4392 0.612502C 10.1392 0.912502 10.7392 3.0125 11.8392 5.0125C 12.0392 5.4125 11.9392 5.8125 11.5392 6.0125C 11.2392 6.2125 10.7392 6.1125 10.5392 5.8125C 9.73923 4.6125 7.23923 1.6125 5.23923 2.1125C 4.83923 2.2125 4.33923 2.3125 4.03923 2.4125C 1.83923 2.9125 0.539231 3.2125 0.0392307 5.5125C -0.0607693 5.8125 0.0392305 6.0125 0.23923 6.3125C 1.23923 7.9125 5.53923 8.8125 7.13923 9.1125C 7.43923 9.2125 7.73923 9.4125 7.73923 9.7125C 7.73923 10.0125 7.63923 10.3125 7.33923 10.5125C 5.63923 11.3125 1.03923 13.9125 0.63923 16.8125C 0.33923 19.3125 1.03923 19.5125 2.33923 19.8125C 2.73923 19.9125 3.13923 20.0125 3.63923 20.2125C 4.33923 20.5125 6.83923 18.3125 8.83923 15.7125C 9.03923 15.4125 9.43923 15.3125 9.73923 15.5125C 10.0392 15.7125 10.2392 16.0125 10.1392 16.4125C 9.53923 18.8125 9.23923 22.7125 10.4392 23.6125C 11.5392 24.5125 12.7392 24.8125 13.6392 24.7125C 14.2392 24.6125 14.7392 24.2125 15.1392 23.6125C 15.7392 22.6125 16.1392 21.7125 16.4392 20.8125C 16.8392 19.8125 17.1392 19.0125 17.7392 18.6125C 18.5392 18.1125 22.5392 16.8125 24.3392 16.3125C 23.0392 13.9125 22.5392 11.0125 22.8392 8.3125Z"/>
<path id="path44_fill" d="M 0.199998 9.6C 0.399998 9.6 12 10.1 24.8 5.2C 16.4 4.6 11 0.499994 10.8 0.299994C 10.7 0.199994 10.6 0.100006 10.6 6.10352e-06C 8 0.500006 5 1.1 2 1.7C 1.8 1.7 1.6 1.79999 1.4 1.79999C 1.3 2.29999 0.300002 5.40001 1.52588e-06 9.50001C 1.52588e-06 9.60001 0.0999985 9.5 0.199998 9.6Z"/>
<path id="path45_fill" d="M 2.75399 1.52588e-06C 1.35399 0.600002 0.353991 1.4 0.153991 2.4C -0.646009 7.4 1.65399 13.3 7.45399 14.2C 7.95399 14.3 8.45399 14.3 9.05399 14.3C 1.95399 8.5 2.25399 2.2 2.75399 1.52588e-06Z"/>
<path id="path46_fill" d="M 6.1 13.1C 6.2 13.2 6.2 13.3 6.3 13.5C 6.7 13.3 7 13 7.4 12.8C 5.5 11.4 5.6 6.8 5.6 5.9C 5.6 5.7 5.7 5.5 5.8 5.4C 4.1 3.8 2.8 1.90001 1.9 6.10352e-06L 1.8 0.0999969C 1.7 0.0999969 1 0.400003 7.62939e-07 0.700003C 0.500001 2 3.3 9.8 6.1 13.1Z"/>
<path id="path47_fill" d="M 1.8 3.05176e-06C 1.2 0.200003 0.599998 0.400003 -1.52588e-06 0.500003C 0.199998 1.5 1.6 9.3 3.5 16.7C 6.6 15.4 9.7 13.9 12.6 12.3C 8.5 9.80001 3 1.8 1.8 3.05176e-06Z"/>
<path id="path48_fill" d="M 3.96967 3.05176e-06C 2.66967 0.300003 1.46967 0.599997 0.369672 0.899997C 0.369672 0.999997 0.369672 1 0.369672 1.1C 0.269672 1.4 -2.23033 8.89999 7.26967 15.6C 7.36967 15.6 7.36967 15.7 7.36967 15.7C 9.36967 15.5 11.7697 15.2 14.3697 14.7C 7.46967 11 4.36967 1.6 3.96967 3.05176e-06Z"/>
<path id="path49_fill" d="M 24.445 13.3829C 24.745 12.3829 25.145 11.5829 25.545 10.8829C 24.845 10.8829 20.645 10.5829 19.045 10.0829C 17.945 9.68291 17.545 8.08291 16.945 5.28291C 16.645 3.58291 16.045 0.78291 15.245 0.48291C 14.445 0.18291 11.945 -0.617097 11.145 0.882903C 10.745 1.6829 11.645 4.68291 12.745 7.08291C 12.945 7.38291 12.745 7.88291 12.445 8.08291C 12.145 8.28291 11.745 8.1829 11.445 7.8829C 10.145 6.1829 5.845 1.5829 3.645 2.7829C 0.945 4.2829 -0.255 6.28291 0.045 8.68291C 0.145 9.58291 3.445 9.3829 4.845 9.2829C 6.745 9.2829 7.445 9.18291 7.845 9.48291C 8.745 10.0829 8.145 11.0829 7.145 12.6829C 6.045 14.6829 4.245 17.6829 5.145 19.5829C 6.145 21.7829 7.645 21.4829 9.145 21.1829C 9.545 21.0829 9.845 21.0829 10.145 20.9829C 10.345 20.6829 10.745 19.7829 10.945 18.9829C 11.745 16.7829 12.745 14.0829 14.945 14.0829C 15.145 14.0829 15.445 14.1829 15.545 14.3829C 15.645 14.5829 15.745 14.7829 15.645 15.0829C 15.145 17.0829 14.545 21.4829 16.245 22.0829C 17.945 22.6829 18.645 21.8829 19.545 20.4829C 19.745 20.1829 19.945 19.8829 20.145 19.6829C 21.145 18.4829 23.145 18.2829 24.145 18.2829C 24.045 16.6829 24.045 14.9829 24.445 13.3829Z"/>
<path id="path50_fill" d="M 7.50486 0.00668195C 3.50486 -0.093318 1.40486 0.906682 0.304861 4.50668C -0.495139 7.30668 0.30486 10.5067 2.40486 13.3067C 2.70486 11.2067 4.10486 4.60668 7.50486 0.00668195Z"/>
<path id="path51_fill" d="M 1.99487 16C 2.09487 16.2 2.09487 16.4 2.09487 16.5C 3.19487 16.5 4.29487 16.5 5.49487 16.5C 5.39487 16.4 5.39487 16.3 5.39487 16.2C 4.89487 10.4 7.39487 2.7 7.99487 0.899998C 5.99487 0.699998 3.89487 0.400002 1.89487 0.200002L 0.494869 -3.05176e-06C 0.0948688 2.1 -0.905131 10.7 1.99487 16Z"/>
<path id="path52_fill" d="M 11 16.6C 11.1 16.6 11.1 16.7 11.2 16.7C 11.3 16.7 11.4 16.7 11.6 16.6C 11.4 15 10.4 5.3 11.3 1.52588e-06C 9.1 0.500002 6.6 0.899997 4.2 1.3C 2.8 1.5 1.4 1.8 -1.52588e-06 2C 0.599998 4.1 4 13.9 11 16.6Z"/>
<path id="path53_fill" d="M 8.7 0.3C 7.6 0.2 6.7 0.0999969 5.8 -3.05176e-06C 1.6 5.1 0.3 14 0.2 14.1C 0.2 14.3 0.0999996 14.4 -3.8147e-07 14.5C 1.8 16.3 4 17.3 6 17.2C 7.1 17.2 8.6 17.1 10.3 17.1C 7.4 11.3 8.4 2.6 8.7 0.3Z"/>
<path id="path54_fill" d="M 10 9.4C 10.2 9.5 10.3 9.7 10.4 9.8C 11.2 9.4 12 8.9 12.8 8.4C 10.7 6.1 9.7 1.5 9.5 0.599997C 6.6 0.499997 3.5 0.299998 -1.42109e-14 -1.52588e-06C 1.2 1.9 4.7 6.8 10 9.4Z"/>
<path id="path55_fill" d="M 7.3 4.7C 7.3 4.5 7.3 4.4 7.4 4.2C 3.5 2.3 0.800001 0.600002 7.62939e-07 1.52588e-06C 0.100001 1.7 0.100002 3.4 0.200002 5C 0.400002 9.9 0.500001 14 1.2 17.5C 1.3 17.6 1.4 17.8 1.4 18L 1.4 18.1C 1.9 20.3 2.7 22.3 4 24C 6 23.4 15.7 20.6 20.7 19.2C 9.1 14 7.3 5.2 7.3 4.7Z"/>
<path id="path56_fill" d="M 7.9 1.52588e-06C 7.8 0.200002 7.6 0.299997 7.3 0.299997C 7.3 0.299997 4.2 0.4 -1.52588e-06 1.1C 2.2 3.7 10.2 12.9 16.1 15.8C 16.6 15.7 17.1 15.6 17.6 15.5C 16.1 13.4 11.1 6 10.4 0.6C 10.4 0.5 10.4 0.400003 10.4 0.400003C 9.6 0.400003 8.8 0.200002 7.9 1.52588e-06Z"/>
<path id="path57_fill" d="M 8.4 1.52588e-06C 6.2 0.200002 3.9 0.299997 1.4 0.299997C 0.900002 0.299997 0.4 0.299997 0 0.299997C 0.3 1.6 1.3 5.6 3 7.2C 5.5 5.3 7.4 3 8.4 1.52588e-06Z"/>
<path id="path58_fill" d="M 18.9 14.7C 12.3 10.5 4.5 1.1 3.6 1.52588e-06C 2.4 0.200002 1.2 0.499997 -7.62939e-07 0.799997C 1.4 4.1 5.5 13.5 9.1 16L 9.2 16.1C 12.6 15.4 15.6 14.9 17.6 14.8C 18 14.8 18.5 14.8 18.9 14.7Z"/>
<path id="path59_fill" d="M 0.455087 -1.52588e-06C 0.155087 2.9 -0.344911 8.8 0.355089 11.3C 0.355089 11.4 0.355089 11.5 0.355089 11.6C 1.35509 11.6 1.95509 11.6 1.95509 11.6C 2.15509 11.6 2.35509 11.7 2.45509 11.8C 6.45509 10.7 10.2551 10.2 12.6551 9.9C 5.85509 7.8 2.25509 4.5 0.455087 -1.52588e-06Z"/>
<path id="path60_fill" d="M -3.05176e-06 -3.05176e-06C 0.899997 5.8 7.2 14.4 7.2 14.5C 10.3 13.8 13.7 12.8 16.7 11.4C 9.9 7.8 6.1 1 5.9 0.700002L 5.9 0.600003C 4.9 0.500003 3.9 0.4 2.8 0.3C 1.8 0.3 0.899997 0.0999969 -3.05176e-06 -3.05176e-06Z"/>
<path id="path61_fill" d="M 12.2038 15.3C 8.50378 11.8 4.70378 3 3.40378 -1.52588e-06C 2.90378 0.199998 2.30378 0.299998 1.80378 0.499998C 1.40378 0.599998 1.00378 0.8 0.503785 0.9C -0.596215 5.6 0.403782 15.7 0.703782 17.7C 3.00378 17.3 5.30378 16.8 7.60378 16.3C 9.20378 16 10.7038 15.6 12.2038 15.3Z"/>
<path id="path62_fill" d="M 0.902256 4C 2.90226 5 5.40226 5.5 7.40226 5.3C 8.70226 5.1 9.90226 3.4 10.4023 2.5C 6.90226 1.9 3.50226 1.1 0.302258 -1.52588e-06L 0.302258 0.0999969C 0.202258 0.199997 -0.597744 3.3 0.902256 4Z"/>
<path id="path63_fill" d="M 96.3662 0.108638C 83.7662 0.608638 73.9662 4.90864 67.2662 12.8086C 61.3662 19.7086 57.7662 29.3086 56.4662 41.6086C 56.2662 41.8086 56.1662 42.2086 56.3662 42.5086C 55.5662 51.0086 55.7662 60.7086 57.0662 71.8086C 57.6662 77.1086 57.8662 81.8086 57.9662 86.1086C 58.1662 90.6086 58.2662 94.7086 58.9662 98.2086C 56.2662 98.0086 49.0662 97.3086 42.3662 96.4086L 40.9662 96.2086C 35.1662 95.5086 30.5662 94.9086 27.8662 97.6086C 27.7662 97.3086 27.5662 97.2086 27.2662 97.1086C 25.9662 97.0086 22.3662 96.8086 21.1662 96.4086C 20.7662 96.1086 20.3662 94.1086 20.0662 92.7086C 19.4662 90.0086 18.9662 87.4086 17.4662 86.8086C 14.6662 85.7086 12.3662 86.2086 11.4662 88.0086C 10.8662 89.0086 11.0662 90.5086 11.4662 92.0086C 9.36622 90.1086 6.56622 88.1086 4.36622 89.4086C 0.366221 91.7086 -0.233779 94.7086 0.0662206 96.7086C 0.366221 99.0086 3.86622 98.8086 6.46622 98.6086C 6.96622 98.6086 7.46622 98.5086 7.86622 98.5086C 7.66622 98.9086 7.46622 99.3086 7.16622 99.7086C 5.86622 102.009 3.96622 105.409 5.06622 107.909C 6.56622 111.209 9.26622 110.609 10.6662 110.309C 10.9662 110.209 11.3662 110.209 11.5662 110.209C 12.6662 110.209 13.0662 109.009 13.6662 107.309C 14.0662 106.209 14.5662 104.809 15.2662 104.009C 14.8662 106.309 14.5662 110.309 17.1662 111.309C 17.7662 111.509 18.2662 111.609 18.7662 111.609C 20.5662 111.609 21.5662 110.209 22.2662 109.109C 22.4662 108.809 22.5662 108.609 22.7662 108.409C 23.3662 107.609 25.3662 107.609 26.0662 107.609C 26.5662 108.909 27.2662 110.209 28.1662 111.309C 30.4662 114.209 33.5662 115.909 36.5662 115.809C 40.6662 115.609 51.4662 115.609 57.4662 115.509C 57.3662 115.509 57.3662 115.609 57.3662 115.709C 55.0662 116.309 52.2662 116.809 49.5662 117.209C 42.8662 118.309 36.4662 119.409 35.0662 122.509C 34.1662 122.209 32.6662 121.609 31.3662 121.409C 30.8662 121.309 30.3662 119.709 29.9662 118.709C 29.3662 116.809 28.6662 114.909 27.1662 114.609C 25.5662 114.209 22.6662 113.809 21.1662 115.309C 20.6662 115.809 20.5662 116.709 20.7662 117.609C 19.5662 116.709 18.1662 116.009 16.7662 116.409C 16.3662 116.509 15.9662 116.609 15.5662 116.709C 13.2662 117.309 11.1662 117.809 10.4662 120.909C 10.2662 121.609 10.4662 122.309 10.8662 122.909C 11.8662 124.509 14.6662 125.409 16.6662 125.909C 14.5662 127.109 11.3662 129.509 10.9662 132.409C 10.4662 136.209 12.2662 136.709 13.7662 137.109C 14.1662 137.209 14.4662 137.309 14.8662 137.409C 16.3662 138.009 18.4662 136.209 20.0662 134.609C 19.8662 136.709 19.8662 139.409 21.3662 140.509C 22.5662 141.409 23.8662 141.909 25.0662 141.909C 25.2662 141.909 25.5662 141.909 25.7662 141.809C 26.7662 141.609 27.6662 141.009 28.2662 140.009C 28.9662 138.909 29.3662 137.909 29.6662 137.009C 29.8662 136.409 30.1662 135.609 30.3662 135.509C 30.7662 135.209 34.0662 134.109 37.0662 133.209C 38.4662 135.109 40.5662 136.509 43.3662 136.909C 43.8662 137.009 44.5662 137.009 45.2662 137.009C 49.4662 137.009 56.5662 135.609 63.6662 134.109C 62.8662 137.009 60.8662 146.309 64.1662 154.409C 58.8662 156.209 44.6662 160.709 41.8662 160.709C 40.9662 160.709 40.2662 158.809 39.5662 156.909C 38.2662 153.509 36.7662 149.409 32.3662 149.409C 29.8662 149.409 27.8662 150.609 26.5662 152.709C 24.2662 156.509 24.5662 162.709 27.4662 168.509C 32.3662 178.409 36.0662 182.909 39.4662 183.209C 39.4662 183.209 39.5662 183.209 39.6662 183.209C 43.6662 183.209 69.1662 173.309 75.5662 166.309C 75.7662 166.109 75.7662 165.909 75.7662 165.709C 79.3662 167.209 83.2662 167.909 87.2662 167.909C 89.0662 167.909 90.8662 167.709 92.6662 167.409C 93.2662 169.009 94.8662 173.509 96.4662 178.009C 96.4662 178.109 96.4662 178.209 96.5662 178.309C 98.2662 182.809 99.8662 187.309 100.466 188.409C 100.166 188.809 99.2662 189.609 98.5662 190.309C 95.5662 192.909 91.0662 196.909 92.8662 201.209C 93.5662 203.009 94.7662 204.309 96.4662 204.909C 97.4662 205.309 98.4662 205.409 99.5662 205.409C 102.866 205.409 106.566 204.009 109.766 202.609C 116.766 199.509 118.666 196.709 119.466 192.809C 120.266 188.909 115.966 158.409 114.966 153.109C 114.966 153.009 114.866 152.909 114.866 152.809C 115.166 152.109 115.466 151.509 115.766 150.809C 120.166 138.809 116.766 116.009 116.366 113.609C 129.166 110.009 136.266 101.209 139.866 85.4086C 140.366 83.3086 140.866 81.1086 141.466 78.8086C 146.366 58.5086 153.066 30.7086 139.766 13.9086C 131.566 3.90864 117.066 -0.791362 96.3662 0.108638ZM 138.366 15.1086C 140.666 18.0086 142.366 21.3086 143.566 24.9086C 131.866 22.7086 119.366 23.3086 107.666 25.2086C 107.666 25.2086 107.666 25.2086 107.566 25.1086C 101.466 22.0086 95.5662 20.0086 90.2662 18.7086C 93.8662 16.9086 112.066 8.30864 134.866 12.3086C 135.166 12.3086 135.366 12.2086 135.566 12.1086C 136.566 12.9086 137.566 13.9086 138.366 15.1086ZM 141.366 72.0086C 137.266 76.2086 129.066 80.7086 122.666 83.7086C 134.466 73.9086 137.766 60.7086 137.766 60.6086C 137.766 60.5086 137.766 60.3086 137.766 60.2086C 140.166 57.7086 141.666 55.8086 142.266 55.1086C 142.966 55.5086 143.666 55.9086 144.366 56.3086C 144.366 56.3086 144.466 56.3086 144.466 56.4086C 143.666 61.7086 142.566 67.0086 141.366 72.0086ZM 114.866 88.9086C 115.166 88.8086 117.566 87.8086 120.966 86.2086C 120.566 88.2086 117.666 100.109 103.566 102.409C 103.666 102.209 103.766 101.909 103.666 101.709C 103.466 101.309 101.866 97.4086 99.7662 96.8086C 97.7662 96.2086 92.0662 96.5086 91.1662 96.8086C 90.4662 97.0086 89.4662 98.6086 88.3662 101.509L 88.3662 101.609C 72.4662 98.0086 68.8662 88.5086 68.2662 86.0086C 70.8662 87.2086 73.9662 88.6086 77.3662 89.7086C 77.3662 89.7086 77.2662 89.8086 77.2662 89.9086C 77.1662 90.1086 76.0662 94.2086 78.6662 95.5086C 80.5662 96.4086 82.7662 97.0086 84.7662 97.0086C 85.1662 97.0086 85.5662 97.0086 85.9662 96.9086C 88.3662 96.6086 90.0662 93.4086 90.2662 93.1086C 90.2662 93.0086 90.2662 93.0086 90.2662 92.9086C 92.4662 93.2086 94.5662 93.4086 96.8662 93.4086C 98.2662 93.4086 99.6662 93.3086 101.066 93.2086L 101.066 93.3086C 101.266 93.8086 103.066 98.3086 106.066 98.3086C 106.166 98.3086 106.266 98.3086 106.366 98.3086C 109.166 98.0086 110.066 97.4086 111.766 96.3086C 113.666 95.1086 113.466 90.7086 113.466 89.8086C 113.766 89.4086 114.366 89.1086 114.866 88.9086ZM 119.666 93.7086C 122.266 93.7086 129.166 92.9086 138.166 85.6086C 136.566 92.6086 134.166 98.2086 130.866 102.509C 123.266 103.809 112.866 103.209 107.866 102.809C 113.666 100.809 117.266 97.1086 119.466 93.6086C 119.466 93.7086 119.566 93.7086 119.666 93.7086ZM 102.566 102.509C 100.166 102.809 97.4662 102.809 94.3662 102.509C 92.7662 102.309 91.1662 102.109 89.7662 101.809C 90.3662 100.209 91.3662 98.4086 91.6662 98.1086C 92.2662 97.9086 97.6662 97.6086 99.4662 98.1086C 100.566 98.4086 101.866 100.809 102.366 102.209C 102.366 102.309 102.466 102.409 102.566 102.509ZM 110.366 127.009C 112.366 127.009 114.366 126.909 115.966 126.609C 116.166 129.009 116.266 131.509 116.266 134.009C 116.166 134.009 116.066 134.109 115.966 134.109C 97.2662 148.909 67.6662 147.909 63.9662 147.709C 63.7662 146.109 63.7662 144.509 63.8662 143.009C 63.9662 143.009 63.9662 143.009 64.0662 143.009C 64.0662 143.009 64.4662 143.009 65.1662 143.009C 70.3662 143.009 92.4662 142.109 108.066 126.809C 108.866 127.009 109.666 127.009 110.366 127.009ZM 71.8662 161.509C 71.6662 161.609 71.5662 161.709 71.4662 161.809C 66.9662 158.509 64.9662 153.809 64.2662 149.209C 64.9662 149.209 66.2662 149.309 67.8662 149.309C 75.0662 149.309 90.0662 148.509 103.766 142.809C 99.6662 146.809 87.4662 157.109 71.8662 161.509ZM 92.2662 135.809C 84.3662 136.209 78.5662 133.009 76.4662 131.709C 78.0662 131.409 79.4662 131.209 80.5662 131.209C 82.1662 131.109 91.5662 130.309 99.3662 126.209C 100.066 126.309 102.766 126.609 106.066 126.809C 101.666 130.809 96.9662 133.709 92.2662 135.809ZM 58.6662 133.809C 58.4662 131.909 57.3662 121.809 58.4662 117.009C 58.8662 116.909 59.3662 116.809 59.7662 116.609C 60.2662 116.409 60.8662 116.309 61.3662 116.109C 62.5662 119.109 66.4662 127.909 70.1662 131.409C 68.6662 131.709 67.1662 132.009 65.5662 132.409C 63.3662 132.909 60.9662 133.309 58.6662 133.809ZM 72.0662 131.109L 71.9662 131.009C 68.4662 128.509 64.2662 119.109 62.8662 115.809C 64.0662 115.509 65.3662 115.209 66.4662 115.009C 67.3662 116.109 75.1662 125.609 81.7662 129.709C 81.2662 129.709 80.8662 129.809 80.3662 129.809C 78.3662 129.909 75.4662 130.409 72.0662 131.109ZM 102.066 122.709C 100.366 121.009 99.3662 117.109 99.0662 115.809C 99.5662 115.809 100.066 115.809 100.466 115.809C 102.966 115.809 105.266 115.709 107.466 115.509C 106.466 118.409 104.566 120.709 102.066 122.709ZM 97.4662 115.709C 97.6662 116.609 98.6662 121.309 100.766 123.509C 99.9662 124.009 99.1662 124.509 98.3662 124.909C 98.2662 124.709 98.1662 124.609 97.9662 124.509C 92.7662 121.909 89.1662 117.009 87.9662 115.109C 91.5662 115.409 94.6662 115.609 97.4662 115.709ZM 86.1662 114.909C 86.1662 114.909 86.1662 115.009 86.1662 114.909C 86.3662 115.309 90.2662 122.109 96.9662 125.709C 93.8662 127.109 90.5662 128.109 87.4662 128.809C 87.3662 128.709 81.0662 120.109 80.2662 114.309C 81.1662 114.409 82.0662 114.609 83.0662 114.709C 84.1662 114.709 85.1662 114.809 86.1662 114.909ZM 85.8662 129.109C 85.3662 129.209 84.8662 129.309 84.3662 129.409C 78.4662 126.509 70.4662 117.409 68.2662 114.709C 72.4662 114.009 75.5662 113.909 75.5662 113.909C 75.8662 113.909 76.0662 113.809 76.1662 113.609C 76.9662 113.809 77.8662 114.009 78.7662 114.109C 78.7662 114.209 78.7662 114.309 78.7662 114.309C 79.3662 119.609 84.3662 127.009 85.8662 129.109ZM 62.2662 114.409C 62.1662 114.309 61.9662 114.209 61.7662 114.209C 61.7662 114.209 61.1662 114.209 60.1662 114.209C 60.1662 114.109 60.1662 114.009 60.1662 113.909C 59.4662 111.509 59.9662 105.509 60.2662 102.609C 62.1662 107.009 65.6662 110.409 72.6662 112.509C 70.0662 112.809 66.2662 113.309 62.2662 114.409ZM 63.1662 105.109C 61.8662 103.409 61.0662 101.509 60.5662 99.2086L 60.5662 99.1086C 60.5662 98.9086 60.5662 98.7086 60.3662 98.6086C 59.6662 95.1086 59.4662 91.0086 59.3662 86.1086C 59.2662 84.5086 59.2662 82.8086 59.1662 81.1086C 59.9662 81.6086 62.6662 83.3086 66.5662 85.3086C 66.4662 85.4086 66.4662 85.6086 66.4662 85.8086C 66.5662 86.3086 68.2662 95.1086 79.8662 100.409C 74.8662 101.709 65.1662 104.509 63.1662 105.109ZM 78.5662 90.2086L 78.5662 90.1086C 81.7662 91.1086 85.1662 92.0086 88.6662 92.6086C 88.1662 93.5086 86.9662 95.2086 85.6662 95.4086C 83.7662 95.6086 81.2662 95.2086 79.1662 94.1086C 77.7662 93.4086 78.5662 90.3086 78.5662 90.2086ZM 111.766 90.3086C 111.766 92.0086 111.566 94.4086 110.766 94.9086C 109.266 95.9086 108.566 96.4086 106.066 96.6086C 104.466 96.7086 102.966 94.0086 102.466 92.8086C 104.766 92.5086 107.066 92.0086 109.366 91.2086C 110.166 91.0086 110.966 90.6086 111.766 90.3086ZM 80.8662 70.8086C 85.1662 70.2086 84.8662 66.6086 84.1662 65.3086C 84.0662 65.1086 83.7662 64.9086 83.2662 64.9086C 84.5662 64.7086 85.8662 64.5086 87.1662 64.3086C 87.3662 66.5086 87.3662 74.2086 80.5662 75.8086C 72.6662 77.7086 70.1662 69.3086 70.0662 68.9086C 70.0662 68.8086 69.9662 68.7086 69.9662 68.6086C 71.7662 67.9086 73.8662 67.2086 76.2662 66.5086C 76.0662 68.2086 76.6662 71.4086 80.8662 70.8086ZM 68.6662 69.2086C 68.6662 69.3086 68.6662 69.3086 68.6662 69.4086C 68.6662 69.5086 71.0662 77.7086 78.3662 77.7086C 79.1662 77.7086 80.0662 77.6086 80.9662 77.4086C 88.9662 75.5086 88.8662 66.7086 88.7662 64.2086C 90.9662 63.9086 93.3662 63.8086 95.8662 63.7086C 95.5662 65.4086 95.2662 69.7086 97.5662 73.0086C 99.0662 75.2086 101.466 76.5086 104.566 76.8086C 105.366 76.9086 106.066 76.9086 106.766 76.9086C 112.966 76.9086 117.266 73.4086 118.866 66.9086C 118.866 66.9086 118.866 66.9086 118.866 66.8086C 121.066 67.5086 123.266 68.3086 125.566 69.2086C 117.366 75.4086 106.466 81.2086 94.3662 81.6086C 85.0662 81.9086 72.8662 80.2086 63.5662 71.6086C 64.2662 71.1086 66.0662 70.2086 68.6662 69.2086ZM 106.366 70.3086C 111.166 70.7086 112.066 67.1086 111.766 65.1086C 113.566 65.5086 115.466 65.9086 117.366 66.5086C 117.366 66.5086 117.366 66.6086 117.266 66.6086C 116.366 70.3086 113.466 76.4086 104.566 75.3086C 101.866 75.0086 99.8662 73.9086 98.5662 72.1086C 96.4662 69.1086 96.9662 65.0086 97.1662 63.7086C 98.7662 63.7086 100.266 63.7086 101.966 63.9086C 101.966 63.9086 101.966 63.9086 101.966 64.0086C 101.466 65.7086 101.066 69.8086 106.366 70.3086ZM 126.866 68.2086C 93.0662 54.0086 64.7662 69.2086 62.3662 70.5086C 61.1662 69.3086 60.0662 67.9086 58.9662 66.5086C 58.5662 66.0086 58.4662 65.8086 58.2662 65.6086C 58.1662 65.5086 58.0662 65.5086 57.9662 65.5086C 57.8662 63.9086 57.7662 62.4086 57.6662 60.9086C 57.7662 60.9086 57.8662 60.9086 57.9662 60.8086C 58.2662 60.6086 84.8662 42.4086 140.466 54.6086C 140.566 54.6086 140.766 54.6086 140.866 54.6086C 139.266 56.3086 134.266 62.3086 126.866 68.2086ZM 64.9662 18.5086C 65.0662 18.5086 65.1662 18.5086 65.2662 18.5086C 65.4662 18.5086 83.5662 15.2086 105.166 25.5086C 82.5662 29.6086 63.2662 38.3086 57.9662 40.7086C 59.0662 31.8086 61.3662 24.4086 64.9662 18.5086ZM 57.4662 59.2086C 57.1662 53.1086 57.2662 47.6086 57.7662 42.5086C 58.7662 42.0086 61.2662 40.8086 64.9662 39.3086C 65.1662 39.4086 65.3662 39.5086 65.5662 39.4086C 65.8662 39.3086 97.4662 31.2086 137.466 52.4086C 87.1662 42.2086 61.0662 57.0086 57.4662 59.2086ZM 109.366 39.9086C 91.7662 35.4086 77.8662 36.1086 70.5662 37.0086C 87.5662 30.4086 117.766 21.2086 143.966 26.4086C 145.066 30.2086 145.566 34.2086 145.766 38.4086C 125.666 35.1086 110.066 39.2086 109.866 39.3086C 109.666 39.4086 109.466 39.6086 109.366 39.9086ZM 68.3662 13.8086C 74.8662 6.20864 84.2662 2.10864 96.3662 1.60864C 97.9662 1.50864 99.5662 1.50864 101.166 1.50864C 115.466 1.50864 126.466 4.50864 133.866 10.5086C 108.566 6.60864 89.0662 17.5086 88.8662 17.7086C 88.6662 17.8086 88.5662 18.0086 88.4662 18.3086C 77.3662 15.9086 68.8662 16.6086 65.9662 17.0086C 66.7662 15.8086 67.5662 14.8086 68.3662 13.8086ZM 58.0662 67.9086C 67.3662 80.3086 81.4662 83.1086 92.3662 83.1086C 92.9662 83.1086 93.6662 83.1086 94.2662 83.1086C 112.366 82.6086 127.466 70.5086 135.766 62.2086C 133.866 67.8086 126.966 83.5086 108.866 89.8086C 86.7662 97.5086 60.0662 79.7086 59.7662 79.6086C 59.5662 79.5086 59.3662 79.5086 59.1662 79.5086C 59.0662 77.0086 58.8662 74.4086 58.5662 71.7086C 58.3662 70.4086 58.2662 69.1086 58.0662 67.9086ZM 59.2662 100.209C 59.0662 100.309 58.8662 100.509 58.7662 100.809C 58.6662 101.209 57.4662 110.509 58.4662 114.209C 57.6662 114.209 56.7662 114.209 55.8662 114.209C 53.9662 111.409 54.1662 102.909 54.3662 99.3086C 56.5662 99.5086 58.2662 99.7086 59.0662 99.7086C 59.2662 99.9086 59.2662 100.009 59.2662 100.209ZM 49.6662 98.8086C 50.8662 98.9086 51.9662 99.0086 52.9662 99.1086C 52.7662 101.209 52.2662 110.009 54.1662 114.109C 51.9662 114.109 49.3662 114.109 46.9662 114.109C 47.0662 114.009 47.0662 113.809 47.0662 113.709C 46.5662 107.809 49.5662 99.3086 49.6662 98.8086ZM 42.0662 97.9086C 44.0662 98.2086 46.1662 98.4086 48.1662 98.6086C 47.5662 100.409 45.1662 108.109 45.5662 113.909C 45.5662 114.009 45.6662 114.109 45.6662 114.209C 44.4662 114.209 43.3662 114.209 42.2662 114.209C 42.2662 114.009 42.2662 113.809 42.1662 113.709C 39.2662 108.409 40.2662 99.7086 40.5662 97.7086L 42.0662 97.9086ZM 21.6662 107.509C 21.4662 107.809 21.2662 108.009 21.0662 108.309C 20.1662 109.709 19.4662 110.509 17.7662 109.909C 16.0662 109.309 16.6662 104.909 17.1662 102.909C 17.2662 102.709 17.1662 102.409 17.0662 102.209C 16.9662 102.009 16.6662 101.909 16.4662 101.909C 14.1662 101.909 13.1662 104.609 12.4662 106.809C 12.1662 107.509 11.8662 108.509 11.6662 108.809C 11.3662 108.809 10.9662 108.909 10.6662 109.009C 9.16622 109.309 7.66622 109.609 6.66622 107.409C 5.76622 105.509 7.56622 102.509 8.66622 100.509C 9.56622 98.8086 10.1662 97.8086 9.36622 97.3086C 8.76622 97.0086 8.06622 97.1086 6.46622 97.2086C 5.06622 97.3086 1.76622 97.5086 1.66622 96.6086C 1.36622 94.2086 2.66622 92.3086 5.26622 90.7086C 7.36622 89.5086 11.6662 94.1086 13.0662 95.8086C 13.2662 96.1086 13.7662 96.2086 14.0662 96.0086C 14.3662 95.8086 14.5662 95.4086 14.3662 95.0086C 13.2662 92.6086 12.3662 89.5086 12.7662 88.8086C 13.5662 87.3086 16.0662 88.1086 16.8662 88.4086C 17.5662 88.7086 18.1662 91.5086 18.5662 93.2086C 19.1662 96.0086 19.5662 97.6086 20.6662 98.0086C 22.2662 98.5086 26.3662 98.8086 27.1662 98.8086C 26.7662 99.5086 26.3662 100.309 26.0662 101.309C 25.5662 102.909 25.5662 104.609 25.9662 106.309C 24.6662 106.209 22.6662 106.309 21.6662 107.509ZM 27.2662 101.609C 28.3662 98.0086 30.4662 97.0086 34.4662 97.1086C 31.0662 101.709 29.7662 108.209 29.3662 110.309C 27.2662 107.609 26.4662 104.409 27.2662 101.609ZM 36.5662 114.409C 34.5662 114.509 32.3662 113.509 30.5662 111.709C 30.6662 111.609 30.7662 111.509 30.7662 111.309C 30.7662 111.209 32.0662 102.309 36.3662 97.2086C 37.2662 97.3086 38.2662 97.4086 39.2662 97.5086C 38.9662 99.7086 37.8662 108.509 40.9662 114.209C 39.0662 114.309 37.5662 114.409 36.5662 114.409ZM 49.8662 118.809C 52.2662 118.409 54.7662 118.009 56.9662 117.509C 55.9662 122.909 57.0662 132.509 57.2662 134.109C 57.1662 134.109 57.0662 134.109 56.8662 134.209C 56.7662 134.209 56.7662 134.109 56.6662 134.109C 49.6662 131.409 46.1662 121.509 45.5662 119.609C 46.9662 119.309 48.4662 119.009 49.8662 118.809ZM 47.3662 135.409C 37.9662 128.709 40.3662 121.209 40.4662 120.909C 40.4662 120.809 40.4662 120.809 40.4662 120.709C 41.5662 120.409 42.7662 120.009 44.0662 119.809C 44.5662 121.409 47.6662 130.809 54.3662 134.609C 51.7662 135.109 49.3662 135.409 47.3662 135.609C 47.3662 135.509 47.3662 135.509 47.3662 135.409ZM 29.5662 134.409C 28.9662 134.809 28.6662 135.609 28.2662 136.609C 27.9662 137.409 27.5662 138.409 26.9662 139.409C 26.5662 140.009 26.0662 140.409 25.4662 140.509C 24.5662 140.709 23.3662 140.309 22.2662 139.409C 21.0662 138.509 21.3662 134.709 21.9662 132.209C 22.0662 131.909 21.8662 131.509 21.5662 131.309C 21.2662 131.109 20.8662 131.209 20.6662 131.509C 18.6662 134.209 16.1662 136.309 15.4662 136.009C 15.0662 135.809 14.5662 135.709 14.1662 135.609C 12.7662 135.209 12.1662 135.109 12.4662 132.609C 12.8662 129.709 17.4662 127.109 19.1662 126.309C 19.4662 126.209 19.6662 125.809 19.5662 125.509C 19.5662 125.209 19.2662 124.909 18.9662 124.909C 17.3662 124.709 13.0662 123.709 12.0662 122.109C 11.8662 121.809 11.8662 121.609 11.8662 121.309C 12.4662 119.009 13.6662 118.709 15.8662 118.209C 16.2662 118.109 16.6662 118.009 17.0662 117.909C 18.9662 117.409 21.5662 120.409 22.3662 121.609C 22.5662 121.909 23.0662 122.009 23.3662 121.809C 23.6662 121.609 23.8662 121.109 23.6662 120.809C 22.5662 118.809 21.9662 116.809 22.2662 116.409C 22.9662 115.709 24.7662 115.509 26.8662 116.109C 27.5662 116.309 28.1662 118.009 28.5662 119.309C 29.1662 121.109 29.7662 122.809 31.1662 123.009C 32.3662 123.209 33.9662 123.709 34.6662 124.109C 34.3662 126.809 34.8662 129.709 36.1662 132.009C 34.3662 132.609 30.2662 133.909 29.5662 134.409ZM 36.2662 123.709C 36.4662 122.709 37.3662 122.009 38.8662 121.309C 38.4662 123.609 38.0662 129.909 45.1662 135.609C 44.5662 135.609 44.0662 135.609 43.5662 135.509C 37.7662 134.609 35.4662 128.809 36.2662 123.709ZM 65.8662 133.909C 68.9662 133.309 71.8662 132.609 74.4662 132.209C 74.4662 132.309 74.5662 132.409 74.6662 132.509C 74.9662 132.709 80.2662 136.709 88.6662 137.409C 75.8662 142.309 64.1662 141.809 64.0662 141.809C 63.9662 141.809 63.9662 141.809 63.8662 141.809C 64.1662 137.709 65.0662 134.609 65.2662 134.109C 65.4662 133.909 65.6662 133.909 65.8662 133.909ZM 64.5662 156.109C 64.5662 156.109 64.6662 156.109 64.6662 156.009C 65.5662 157.909 66.8662 159.809 68.5662 161.409C 68.4662 161.509 68.3662 161.709 68.3662 161.909C 68.3662 162.809 68.1662 167.409 70.1662 168.809C 69.7662 169.009 69.4662 169.309 69.0662 169.509C 69.0662 169.409 68.9662 169.209 68.8662 169.109C 66.0662 165.909 63.2662 158.009 62.7662 156.609C 63.7662 156.309 64.4662 156.109 64.5662 156.109ZM 56.1662 176.109C 54.2662 168.709 52.8662 160.909 52.6662 159.909C 53.2662 159.709 53.8662 159.509 54.4662 159.409C 55.6662 161.209 61.1662 169.109 65.2662 171.809C 62.4662 173.209 59.2662 174.709 56.1662 176.109ZM 51.1662 178.209C 51.0662 178.109 50.9662 178.009 50.7662 177.909C 49.8662 177.709 48.7662 177.509 47.4662 177.409C 45.5662 174.609 43.3662 165.209 42.7662 162.409C 42.8662 162.409 43.0662 162.409 43.1662 162.309C 46.4662 167.209 51.5662 174.609 54.1662 176.909C 53.1662 177.409 52.1662 177.809 51.1662 178.209ZM 44.7662 162.009C 46.5662 161.609 48.7662 161.009 51.1662 160.309C 51.4662 161.709 52.6662 168.309 54.3662 175.109C 52.3662 172.809 48.3662 167.309 44.7662 162.009ZM 66.3662 170.609C 62.7662 168.509 57.5662 161.209 55.9662 158.909C 57.9662 158.309 59.8662 157.709 61.3662 157.209C 61.8662 158.609 64.7662 166.709 67.7662 170.209L 67.8662 170.309C 67.4662 170.509 67.0662 170.809 66.5662 171.009C 66.5662 170.809 66.4662 170.709 66.3662 170.609ZM 41.2662 162.409C 41.7662 164.609 43.6662 173.209 45.6662 177.209C 43.5662 176.909 41.2662 176.709 39.1662 176.509C 39.1662 176.409 39.0662 176.309 39.0662 176.209C 37.0662 173.309 34.9662 162.009 34.4662 159.509C 35.3662 157.809 36.2662 156.109 36.9662 154.909C 37.3662 155.809 37.7662 156.809 38.0662 157.709C 38.9662 159.909 39.6662 161.909 41.2662 162.409ZM 29.7662 170.009C 29.8662 169.909 29.8662 169.809 29.8662 169.709C 29.9662 168.509 31.5662 165.109 33.3662 161.609C 34.0662 165.509 35.6662 172.909 37.3662 176.209C 35.2662 176.009 33.6662 175.809 33.1662 175.809C 32.0662 174.209 30.9662 172.309 29.7662 170.009ZM 36.0662 153.309C 35.6662 154.009 34.5662 156.009 33.2662 158.409C 32.9662 158.509 32.7662 158.809 32.8662 159.209C 31.2662 162.309 29.5662 165.809 28.7662 168.009C 27.9662 162.809 31.8662 153.309 32.7662 151.109C 34.2662 151.309 35.2662 152.109 36.0662 153.309ZM 27.7662 153.709C 28.5662 152.409 29.7662 151.609 31.1662 151.309C 30.1662 153.809 27.9662 159.609 27.3662 164.509C 26.0662 160.309 26.1662 156.309 27.7662 153.709ZM 39.5662 181.909C 38.0662 181.809 36.2662 180.309 34.2662 177.409C 37.2662 177.709 44.2662 178.409 48.7662 179.109C 44.2662 180.809 40.6662 181.909 39.5662 181.909ZM 74.3662 165.409C 73.5662 166.209 72.5662 167.109 71.3662 168.009C 71.2662 167.909 71.1662 167.809 71.0662 167.709C 70.1662 167.209 69.7662 164.509 69.8662 162.509C 70.8662 163.309 71.9662 164.109 73.2662 164.809C 73.6662 165.009 74.0662 165.209 74.4662 165.409C 74.4662 165.409 74.4662 165.409 74.3662 165.409ZM 73.9662 163.409C 73.5662 163.209 73.1662 163.009 72.8662 162.809C 75.4662 162.009 77.9662 161.109 80.3662 160.109C 81.8662 160.009 100.566 159.009 115.066 147.209C 115.066 147.209 115.066 147.209 115.166 147.109C 114.866 148.309 114.566 149.509 114.166 150.609C 112.066 156.309 106.466 161.509 99.0662 164.309C 90.5662 167.709 81.3662 167.309 73.9662 163.409ZM 96.4662 166.809C 96.5662 167.009 96.8662 167.209 97.1662 167.209C 97.1662 167.209 97.3662 167.209 97.6662 167.209C 99.3662 167.209 104.666 167.109 110.066 165.609C 107.766 168.109 101.966 173.509 97.5662 176.909C 96.3662 173.709 95.1662 170.309 94.1662 167.409C 94.8662 167.209 95.6662 167.009 96.4662 166.809ZM 116.066 172.709C 115.966 172.809 115.866 172.809 115.866 172.909C 110.866 179.909 99.3662 181.009 99.1662 181.109L 99.0662 181.109C 98.7662 180.209 98.3662 179.309 98.0662 178.409C 102.166 175.209 111.766 166.709 112.466 164.809C 113.266 164.509 114.166 164.109 114.966 163.709C 115.266 166.509 115.666 169.609 116.066 172.709ZM 99.5662 182.509C 101.366 182.309 111.066 180.909 116.366 174.709C 116.466 175.509 116.566 176.309 116.666 177.109C 116.466 177.409 111.666 183.209 101.466 187.409C 101.166 186.609 100.466 184.809 99.5662 182.509ZM 117.766 187.209C 117.666 187.209 117.566 187.209 117.466 187.309C 110.566 191.309 103.866 190.409 101.366 189.909C 101.666 189.609 101.866 189.309 101.966 189.009C 110.266 185.609 115.066 181.209 116.966 179.209C 117.266 182.109 117.566 184.909 117.766 187.209ZM 96.8662 203.809C 95.5662 203.309 94.6662 202.309 94.1662 200.909C 93.2662 198.809 94.5662 196.709 96.1662 194.809C 96.8662 196.909 99.0662 201.409 105.466 203.009C 102.466 204.009 99.2662 204.709 96.8662 203.809ZM 109.066 201.509C 108.566 201.709 108.166 201.909 107.666 202.109C 107.566 201.909 107.366 201.709 107.166 201.709C 99.0662 200.309 97.6662 194.409 97.4662 193.409C 97.7662 193.109 98.1662 192.809 98.4662 192.509C 99.4662 193.409 105.166 198.309 113.266 198.309C 113.766 198.309 114.166 198.309 114.666 198.209C 113.266 199.409 111.566 200.409 109.066 201.509ZM 117.866 192.809C 117.566 194.309 117.066 195.609 116.066 196.809C 115.966 196.709 115.766 196.709 115.566 196.709C 107.166 197.809 100.766 192.609 99.4662 191.609C 99.6662 191.409 99.8662 191.309 99.9662 191.109C 100.666 191.309 102.866 191.909 105.966 191.909C 109.266 191.909 113.466 191.209 117.766 188.809C 117.966 190.709 117.966 192.209 117.866 192.809ZM 114.666 162.209C 109.766 164.809 103.266 165.509 99.7662 165.709C 105.766 163.309 110.666 159.509 113.566 155.109C 113.866 156.809 114.266 159.309 114.666 162.209ZM 115.266 146.409C 115.266 146.309 115.166 146.309 115.166 146.209C 114.866 145.909 114.466 145.809 114.066 146.109C 103.566 154.609 90.8662 157.309 84.3662 158.209C 97.5662 151.609 106.166 142.509 106.366 142.409C 106.566 142.209 106.566 141.909 106.566 141.709C 109.966 140.109 113.266 138.209 116.266 135.909C 116.166 139.509 115.966 143.109 115.266 146.409ZM 115.866 125.109C 113.866 125.509 111.166 125.609 108.466 125.509C 108.166 125.209 107.766 125.209 107.466 125.509C 105.166 125.409 102.966 125.209 101.366 125.009C 104.766 122.809 107.666 119.709 108.866 115.709C 108.866 115.609 108.866 115.509 108.866 115.309C 110.866 115.109 112.766 114.709 114.566 114.309C 114.866 115.509 115.466 119.709 115.866 125.109ZM 100.466 114.309C 95.5662 114.309 90.0662 113.909 83.1662 113.109C 73.1662 112.009 67.4662 109.809 64.1662 106.309C 67.4662 105.409 77.7662 102.409 81.6662 101.309C 81.7662 101.309 81.8662 101.209 81.9662 101.209C 85.2662 102.509 89.2662 103.509 94.0662 104.009C 95.5662 104.209 97.0662 104.209 98.4662 104.209C 100.566 104.209 102.466 104.009 104.166 103.709C 104.266 103.809 104.466 103.909 104.666 104.009C 105.066 104.009 111.866 104.809 119.366 104.809C 122.666 104.809 126.166 104.609 129.366 104.209C 123.166 111.209 113.866 114.309 100.466 114.309ZM 138.666 83.5086C 138.466 83.5086 138.366 83.6086 138.166 83.7086C 129.566 90.9086 122.866 92.1086 120.266 92.2086C 121.966 88.9086 122.466 86.3086 122.466 86.2086C 122.466 86.0086 122.466 85.8086 122.266 85.6086C 128.066 82.9086 135.966 78.7086 140.766 74.6086C 140.466 76.0086 140.066 77.4086 139.766 78.7086C 139.366 80.4086 139.066 81.9086 138.666 83.5086ZM 144.766 54.7086C 132.966 47.6086 121.666 43.2086 111.566 40.4086C 115.666 39.5086 129.166 37.1086 145.866 39.9086C 145.866 44.8086 145.466 49.8086 144.766 54.7086Z"/>
<path id="path64_fill" d="M 1.05 -3.05176e-06C -0.35 -3.05176e-06 -0.35 2.2 1.05 2.2C 2.45 2.2 2.45 -3.05176e-06 1.05 -3.05176e-06Z"/>
<path id="path65_fill" d="M 0.0259939 1.22998C 0.0259939 1.32998 0.125992 1.42999 0.125992 1.62999C 0.225992 2.22999 1.12599 2.42999 1.52599 2.02999C 1.82599 1.72999 1.926 1.42999 1.926 1.02999C 2.126 -0.470013 -0.274006 -0.270016 0.0259939 1.22998Z"/>
<path id="path66_fill" d="M 1.8 6.30952C 2.5 6.60952 5 4.40952 7 1.80952C 7.2 1.60952 7.5 1.50952 7.8 1.50952C 7.4 0.609521 6.6 -0.0904792 5.7 0.00952079C 4.9 0.109521 4.3 0.609533 3.8 1.20953C 2.8 2.40953 2.1 3.80953 1 4.90953C 0.7 5.20953 0.4 5.50953 3.8147e-07 5.70953C 0.2 5.80953 0.4 5.80953 0.6 5.90953C 0.9 5.90953 1.3 6.10952 1.8 6.30952Z"/>
<path id="path67_fill" d="M 6.4 1.5C 4.9 2 3.4 2.50001 2.4 3.80001C 0.900001 5.70001 1.4 8.4 0.499999 10.7C 0.399999 11 0.199999 11.3 -7.62939e-07 11.6C 0.499999 11.8 0.999999 11.8 1.5 11.7C 2.1 11.6 2.6 11.2 3 10.6C 3.6 9.59999 4 8.70001 4.3 7.80001C 4.7 6.80001 5 5.99999 5.6 5.59999C 6.4 5.09999 10.4 3.80001 12.2 3.30001C 11.6 2.30001 11.2 1.2 11 3.05176e-06C 10.7 0.100003 10.4 0.200006 10.1 0.300006C 8.9 0.700006 7.7 1.1 6.4 1.5Z"/>
<path id="path68_fill" d="M 4.3 0.664113C 3.1 1.66411 2.7 3.36411 2.1 4.86411C 1.6 6.16411 1 7.36411 3.8147e-07 8.36411C 0.7 8.56411 1.5 8.46411 2.3 8.26411C 2.7 8.16411 3 8.16411 3.3 8.06411C 3.5 7.76411 3.9 6.86411 4.1 6.06411C 4.9 3.86411 5.9 1.26411 8.1 1.16411C 7.7 -0.235887 5.5 -0.335887 4.3 0.664113Z"/>
<path id="path69_fill" d="M 1.5 2.8C 1 4.3 0.5 5.7 3.8147e-07 7.2L 0.100001 7.3C 1.8 7.9 2.5 7.1 3.4 5.7C 3.6 5.4 3.8 5.1 4 4.9C 5 3.7 7 3.5 8 3.5C 7.7 2.3 7.7 1.1 7.8 -1.52588e-06C 6.3 0.0999985 4.8 0.5 3.3 0.9C 2.9 1 2.6 1.1 2.3 1.3C 1.9 1.7 1.7 2.3 1.5 2.8Z"/>
<path id="path70_fill" d="M 39.4 1.52588e-06C 37.8 6.5 33.4 10 27.3 10C 26.6 10 25.9 10 25.1 9.9C 24.3 9.8 23.6 9.6 22.9 9.4C 15.5 11.7 7.8 13 3.05176e-06 13.2C 5.2 14.5 10.3 14.9 14.8 14.7C 27 14.3 37.8 8.5 46 2.3C 43.8 1.4 41.6 0.600002 39.4 1.52588e-06Z"/>
<path id="path71_fill" d="M 12.5746 7.4C 9.87463 9 6.07463 9.2 3.57463 7.2C 1.87463 5.8 0.974634 3.5 0.374634 1.3C 0.274634 0.899999 0.174631 0.400003 0.0746305 3.05176e-06C -0.125369 1.8 -0.0253711 4.9 1.67463 7.2C 2.97463 9 4.97463 10.1 7.67463 10.4C 16.4746 11.5 19.3746 5.4 20.3746 1.7C 20.3746 1.7 20.3746 1.6 20.4746 1.6C 19.6746 1.4 18.8746 1.2 18.0746 1C 16.7746 3.6 14.9746 5.9 12.5746 7.4Z"/>
<path id="path72_fill" d="M 16.6 3.05176e-06C 16.1 0.100003 15.5 0.2 15 0.2C 14.7 2 14.3 3.8 13.6 5.4C 12.5 7.7 10.5 9.8 8 10.2C 6 10.6 3.9 9.9 2.3 8.7C 1.3 7.9 0.599998 7 -1.52588e-06 5.9C 0.999998 8.3 3.9 12.9 10 11.5C 16.7 9.8 16.7 2.2 16.6 3.05176e-06Z"/>
<path id="path73_fill" d="M 8.15696 0.667929C 7.45696 -0.432071 5.85695 0.0679284 4.95695 0.467928C 3.35695 1.16793 1.85696 2.06793 0.256958 2.86793C -0.243042 3.16793 0.0569606 3.86793 0.556961 3.86793C 1.85696 3.96793 3.15696 3.26793 4.35696 2.66793C 5.15696 2.26793 5.95696 1.96793 6.85696 1.76793C 7.45696 1.56793 7.85696 1.56793 8.15696 1.06793C 8.25696 0.967929 8.15696 0.767929 8.15696 0.667929Z"/>
<path id="path74_fill" d="M 5.48889 0.168302C 4.68889 -0.231698 3.98889 0.168301 3.28889 0.468301C 2.18889 0.968301 1.28889 1.6683 0.18889 2.1683C -0.21111 2.3683 0.0888858 2.9683 0.488886 2.8683C 1.28889 2.5683 2.08889 2.1683 2.88889 1.7683C 3.68889 1.3683 4.78889 1.2683 5.48889 0.768301C 5.58889 0.468301 5.68889 0.268302 5.48889 0.168302Z"/>
<path id="path75_fill" d="M 3.37002 0C 2.37002 0 1.47002 0.9 0.37002 1.1C -0.22998 1.2 -0.0299811 2.1 0.470019 2.1C 1.57002 2.1 2.97002 1.8 3.77002 1.1C 4.17002 0.7 3.87002 0 3.37002 0Z"/>
<path id="path76_fill" d="M 6.175 0.563364C 5.575 -0.236636 4.575 -0.0366372 3.675 0.263363C 2.575 0.563363 1.475 0.963363 0.374998 1.36336C -0.125002 1.56336 -0.125002 2.26336 0.374998 2.46336C 1.275 2.76336 2.275 2.56336 3.175 2.26336C 4.075 2.06336 5.375 1.86336 6.075 1.26336C 6.375 1.06336 6.275 0.763364 6.175 0.563364Z"/>
<path id="path77_fill" d="M 0.952442 0.0397256C 0.852442 0.0397256 0.752439 0.139726 0.652439 0.139726C 0.0524393 0.339726 -0.247562 1.03973 0.252438 1.53973C 0.752438 2.03973 1.45244 1.73973 1.65244 1.13973C 1.65244 1.03973 1.75244 0.939727 1.75244 0.839727C 2.05244 0.439727 1.45244 -0.160274 0.952442 0.0397256Z"/>
<path id="path78_fill" d="M 8.76569 0.478592C 7.56569 -0.321408 5.76569 0.0785912 4.36569 0.278591C 2.86569 0.478591 1.16569 0.77859 0.0656885 1.87859C -0.0343115 1.97859 -0.0343131 2.27859 0.165687 2.37859C 1.66569 2.57859 3.06569 2.07859 4.56569 1.97859C 5.86569 1.87859 7.56569 2.07859 8.76569 1.27859C 9.06569 1.07859 9.06569 0.678592 8.76569 0.478592Z"/>
<path id="path79_fill" d="M 3.57925 0.438518C 2.77925 -0.261482 1.57925 0.0385177 0.579248 0.238518C -0.420752 0.438518 -0.0207586 1.83852 0.979241 1.73852C 1.87924 1.53852 2.87925 1.63852 3.57925 1.03852C 3.77925 0.838521 3.77925 0.538518 3.57925 0.438518Z"/>
<path id="path80_fill" d="M 12.0033 0.104975C 10.1033 -0.395025 8.00334 1.00497 6.40334 1.90497C 4.10334 3.20497 1.80334 4.90497 0.103337 6.90497C -0.196663 7.30497 0.203336 8.00497 0.703336 7.60497C 2.70334 6.30497 4.50334 4.80497 6.60334 3.70497C 8.40334 2.70497 10.9033 2.30498 12.2033 0.804976C 12.4033 0.504976 12.3033 0.204975 12.0033 0.104975Z"/>
<path id="path81_fill" d="M 7.07201 0.430919C 6.47201 -0.569081 4.87201 0.430917 4.17201 0.830917C 2.67201 1.53092 1.37201 2.43092 0.172009 3.43092C -0.327991 3.83092 0.372014 4.63092 0.872014 4.33092C 2.17201 3.53092 3.47201 2.63092 4.87201 2.03092C 5.17201 1.83092 7.57201 1.33092 7.07201 0.430919Z"/>
<path id="path82_fill" d="M 4.07201 0.0925063C 3.37201 -0.207494 2.77201 0.292506 2.17201 0.592506C 1.47201 0.992506 0.872011 1.2925 0.172011 1.7925C -0.327989 2.1925 0.372015 3.0925 0.872015 2.6925C 1.47202 2.2925 2.17202 1.9925 2.87202 1.7925C 3.47202 1.5925 4.27201 1.1925 4.27201 0.492504C 4.27201 0.392504 4.27201 0.192506 4.07201 0.0925063Z"/>
<path id="path83_fill" d="M 3.07774 0.0707099C 2.17774 0.27071 1.37774 0.770711 0.477745 0.970711C -0.322255 1.17071 -0.0222582 2.27071 0.677742 2.27071C 1.57774 2.37071 2.27774 2.07071 3.07774 1.77071C 3.67774 1.57071 4.57774 1.37071 4.57774 0.57071C 4.57774 -0.12929 3.57774 -0.0292901 3.07774 0.0707099Z"/>
<path id="path84_fill" d="M 2.02548 0.337498C 1.82548 0.0374985 1.52549 -0.0625008 1.22549 0.0374992C 0.925489 0.137499 0.825477 0.537502 0.525477 0.637502C 0.125477 0.837502 -0.0745227 1.1375 0.0254773 1.5375C 0.125477 1.9375 0.525486 2.2375 0.925486 2.0375C 1.42549 1.7375 2.42548 1.1375 2.02548 0.337498Z"/>
<path id="path85_fill" d="M 1.57846 0.0260114C 0.978462 0.126011 0.278462 0.62601 0.0784617 1.12601C -0.121538 1.42601 0.0784594 2.02601 0.478459 2.02601C 1.17846 2.12601 1.87846 1.92601 2.47846 1.42601C 3.07846 0.826013 2.27846 -0.173989 1.57846 0.0260114Z"/>
<path id="path86_fill" d="M 1.2583 0.239391C 1.0583 -0.0606093 0.758301 -0.0606154 0.458301 0.139385C 0.358301 0.239385 0.258302 0.439385 0.158302 0.639385C -0.341698 1.23938 0.458301 1.93939 0.958301 1.43939C 1.3583 1.13939 1.5583 0.639391 1.2583 0.239391Z"/>
<path id="path87_fill" d="M 11.4811 2.06782C 10.0811 0.767817 8.18114 1.16782 6.38114 1.16782C 4.28114 1.16782 2.48114 -0.332183 0.281136 0.067817C -0.0188642 0.167817 -0.118863 0.667822 0.181137 0.767822C 1.88114 1.56782 3.58114 2.46782 5.48114 2.86782C 7.18114 3.26782 9.38114 3.16782 11.1811 2.96782C 11.4811 2.86782 11.7811 2.36782 11.4811 2.06782Z"/>
<path id="path88_fill" d="M 0.374998 0.352273C -0.125002 0.452273 -0.125002 1.25227 0.374998 1.35227C 1.075 1.55227 4.175 2.25227 4.175 0.852273C 4.275 -0.547727 1.175 0.152273 0.374998 0.352273Z"/>
<path id="path89_fill" d="M 2.34095 0.0348535C 1.94095 0.134854 1.64095 0.434852 1.24095 0.634852C 0.840955 0.834852 0.440952 1.03485 0.140952 1.43485C -0.159048 1.83485 0.040954 2.43485 0.540954 2.43485C 1.04095 2.43485 1.44095 2.23485 1.84095 2.03485C 2.34095 1.83485 2.84095 1.63485 3.14095 1.13485C 3.64095 0.534852 2.94095 -0.165146 2.34095 0.0348535Z"/>
<path id="path90_fill" d="M 1.68889 0.0353708C 1.08889 -0.164629 0.58889 0.535374 0.18889 0.835374C -0.21111 1.03537 0.0888897 1.63537 0.48889 1.53537C 0.98889 1.43537 2.08889 1.13537 1.98889 0.435372C 1.88889 0.235372 1.88889 0.135371 1.68889 0.0353708Z"/>
<path id="path91_fill" d="M 2.13653 -1.52588e-06C 1.43653 -1.52588e-06 0.836532 0.4 0.236532 0.9C -0.463468 1.6 0.536531 2.6 1.33653 2C 1.63653 1.7 1.93653 1.6 2.33653 1.4C 2.63653 1.3 2.83653 1.1 2.83653 0.700003C 2.93653 0.400003 2.53653 -1.52588e-06 2.13653 -1.52588e-06Z"/>
<path id="path92_fill" d="M 1.74853 0.259811C 1.64853 -0.0401893 1.34853 -0.0401939 1.04853 0.0598061C 0.648528 0.259806 0.548529 0.659808 0.248529 0.959808C -0.351471 1.45981 0.248527 2.45981 0.848527 2.05981C 1.44853 1.65981 2.14853 0.959811 1.74853 0.259811Z"/>
<path id="path93_fill" d="M 3.08051 0.0749969C 2.78051 -0.0250031 2.48051 -0.0250031 2.18051 0.0749969C 1.88051 0.174997 1.5805 0.275006 1.3805 0.475006C 0.880505 0.775006 0.380509 0.975006 0.0805092 1.47501C -0.119491 1.77501 0.0805046 2.27499 0.380505 2.27499C 0.880505 2.37499 1.38051 2.175 1.78051 2.075C 2.08051 1.975 2.38051 1.87499 2.58051 1.77499C 2.88051 1.67499 2.98051 1.47499 3.28051 1.27499C 3.68051 0.874994 3.58051 0.174997 3.08051 0.0749969Z"/>
<path id="path94_fill" d="M 2.20475 0.318361C 1.60475 -0.481639 0.50474 0.418367 0.10474 0.918367C -0.19526 1.31837 0.20474 1.81836 0.60474 1.61836C 1.00474 1.41836 2.80475 1.01836 2.20475 0.318361Z"/>
<path id="path95_fill" d="M 4.45244 0.314451C 3.15244 -0.785549 1.35244 1.31445 0.252438 1.81445C -0.247562 2.11445 0.0524393 2.91445 0.652439 2.71445C 1.35244 2.51445 1.95244 2.21445 2.55244 1.81445C 3.15244 1.41445 3.95244 1.31445 4.45244 0.714445C 4.55244 0.714445 4.55244 0.514451 4.45244 0.314451Z"/>
<path id="path96_fill" d="M 2.2583 0.231254C 1.5583 -0.368746 0.658302 0.33126 0.158302 0.83126C -0.341698 1.33126 0.458297 2.03126 0.958297 1.63126C 1.3583 1.23126 1.9583 1.13126 2.3583 0.631263C 2.3583 0.431263 2.3583 0.231254 2.2583 0.231254Z"/>
<path id="path97_fill" d="M 9.725 0.24038C 8.525 -0.35962 7.025 0.340377 5.825 0.440377C 4.125 0.540377 2.425 0.44038 0.825002 0.24038C -0.274998 0.14038 -0.274998 1.84038 0.825002 2.04038C 2.725 2.24038 4.525 2.34038 6.425 2.24038C 7.625 2.14038 9.425 2.14039 9.925 0.840386C 9.925 0.640386 9.925 0.34038 9.725 0.24038Z"/>
<path id="path98_fill" d="M 3.16335 0.0656854C 2.66335 -0.0343146 2.36335 -0.0343085 1.86335 0.165692C 1.36335 0.365692 0.863352 0.665688 0.363352 0.865689C -0.136648 1.06569 -0.13665 1.96568 0.46335 1.96568C 0.96335 1.96568 1.46335 1.86569 1.96335 1.66569C 2.56335 1.46569 2.96335 1.16569 3.26335 0.565685C 3.46335 0.365685 3.36335 0.0656854 3.16335 0.0656854Z"/>
<path id="path99_fill" d="M 2.38338 0.0656854C 1.98338 -0.0343146 1.78338 -0.0343085 1.38338 0.165692C 0.983384 0.365692 0.583386 0.565688 0.283386 0.865689C -0.216614 1.16569 -0.0166111 2.06568 0.583389 1.96568C 1.48339 1.96568 2.68339 1.46569 2.58339 0.365688C 2.58339 0.265688 2.48338 0.165685 2.38338 0.0656854Z"/>
<path id="path100_fill" d="M 1.32419 0.2C 1.32419 0 1.02419 3.05176e-06 0.924193 3.05176e-06C 0.424193 0.200003 0.224191 0.800006 0.0241911 1.30001C -0.175809 2.00001 0.92419 2.29999 1.12419 1.59999C 1.22419 1.19999 1.42419 0.7 1.32419 0.2Z"/>
<path id="path101_fill" d="M 1.825 0.0156646C 1.325 -0.0843354 0.624998 0.315655 0.224998 0.615655C -0.0750015 0.815655 -0.0750015 1.21566 0.224998 1.41566C 0.924998 1.81566 2.225 1.61566 2.425 0.715662C 2.525 0.315662 2.225 0.0156646 1.825 0.0156646Z"/>
<path id="path102_fill" d="M 2.62952 2.47061C 2.42952 1.47061 1.72951 0.770606 0.929514 0.170606C 0.329514 -0.329394 -0.270485 0.370609 0.129515 0.970609C 0.629515 1.57061 1.02951 2.27061 1.42951 2.97061C 1.92951 3.67061 2.82952 3.17061 2.62952 2.47061Z"/>
<path id="path103_fill" d="M 1.76596 1.76875C 1.56596 1.26875 1.46596 0.568748 1.06596 0.168748C 0.765957 -0.131252 0.165957 -0.0312485 0.0659569 0.468752C -0.134043 1.06875 0.165956 1.86875 0.365956 2.46875C 0.565956 3.16875 1.16596 3.86875 1.96596 3.76875C 2.06596 3.76875 2.16596 3.66875 2.26596 3.46875C 2.26596 2.86875 1.96596 2.26875 1.76596 1.76875Z"/>
<path id="path104_fill" d="M 1.11591 1.80405C 0.915915 1.20405 0.715916 0.704049 0.415916 0.104049C 0.315916 -0.0959512 -0.0840858 0.00405335 0.0159142 0.304053C 0.115914 0.904053 0.315916 1.50405 0.415916 2.00405C 0.515916 2.50405 0.415915 3.10405 0.815915 3.40405C 0.915915 3.50405 1.11591 3.50405 1.21591 3.30405C 1.51591 2.90405 1.31591 2.30405 1.11591 1.80405Z"/>
<path id="path105_fill" d="M 0.553832 0.106253C 0.253832 -0.193747 -0.146168 0.206247 0.0538325 0.506247C 0.253832 0.906247 0.553833 1.40625 1.15383 1.30625C 1.25383 1.30625 1.35383 1.20625 1.35383 1.10625C 1.25383 0.606253 0.853832 0.506253 0.553832 0.106253Z"/>
<path id="path106_fill" d="M 1.95771 0.478462C 1.85771 0.0784625 1.3577 -0.121539 1.0577 0.078461C 0.557704 0.478461 0.257704 1.07846 0.0577037 1.67846C -0.342296 2.77846 1.4577 3.27846 1.7577 2.17846C 1.9577 1.67846 2.05771 0.978462 1.95771 0.478462Z"/>
<path id="path107_fill" d="M 2.20811 1.875C 2.00811 1.375 1.8081 0.875002 1.5081 0.375002C 1.2081 -0.124998 0.408105 -0.124998 0.208105 0.375002C -0.191895 1.175 0.00810671 2.175 0.608107 2.875C 1.20811 3.575 2.60811 2.875 2.20811 1.875Z"/>
<path id="path108_fill" d="M 4.64682 0.00638029C 3.04682 -0.0936197 1.74682 1.00638 0.246818 1.60638C -0.153182 1.80638 -0.0531828 2.50638 0.446817 2.30638C 1.94682 1.90638 3.54682 1.40638 4.74682 0.306376C 4.94682 0.206376 4.84682 0.00638029 4.64682 0.00638029Z"/>
<path id="path109_fill" d="M 1.49272 0.00769586C 0.992715 0.107696 0.692714 0.307696 0.292714 0.507696C -0.307286 0.907696 0.0927144 1.8077 0.792714 1.6077C 1.19271 1.5077 1.69272 1.4077 1.99272 1.2077C 2.69272 0.8077 2.29272 -0.0923041 1.49272 0.00769586Z"/>
<path id="path110_fill" d="M 3.50902 0.700002C 3.20902 0.200002 2.70902 -3.05176e-06 2.20902 -3.05176e-06C 1.90902 -3.05176e-06 1.50902 -3.05176e-06 1.20902 -3.05176e-06C 0.909017 -3.05176e-06 0.509017 0.200003 0.209017 0.100003C 0.00901738 0.100003 -0.090983 0.399997 0.109017 0.499997C 0.309017 0.599997 0.409017 0.799998 0.709017 0.899998C 1.00902 0.999998 1.30902 1.1 1.70902 1.2C 2.30902 1.3 2.90902 1.4 3.50902 1.1C 3.50902 1.1 3.60902 0.900002 3.50902 0.700002Z"/>
<path id="path111_fill" d="M 14.5915 0.618332C 12.8915 -0.881668 9.79151 0.718331 7.99151 1.51833C 5.29151 2.71833 1.79151 4.61833 0.0915147 7.11833C -0.208485 7.51833 0.291513 8.11833 0.691513 7.91833C 3.09151 6.91833 5.09151 5.11833 7.49151 3.91833C 8.89151 3.21833 10.2915 2.71833 11.7915 2.21833C 12.8915 1.91833 13.7915 1.91833 14.6915 1.11833C 14.7915 1.01833 14.7915 0.718332 14.5915 0.618332Z"/>
<path id="path112_fill" d="M 3.225 0.0375002C 2.325 -0.0624998 1.325 0.0374999 0.524998 0.3375C -0.175002 0.5375 -0.175002 1.5375 0.524998 1.7375C 1.425 2.0375 2.525 1.9375 3.425 1.5375C 4.025 1.2375 3.925 0.1375 3.225 0.0375002Z"/>
<path id="path113_fill" d="M 7.02978 0.0598473C 6.02978 -0.240153 5.02977 0.659848 4.22977 1.15985C 2.92977 1.85985 1.52977 2.55985 0.229774 3.15985C -0.270226 3.35985 0.129775 4.15985 0.629775 3.95985C 2.02978 3.65985 3.32978 3.25985 4.62978 2.65985C 5.52978 2.25985 7.22978 1.75985 7.42978 0.659848C 7.42978 0.359848 7.32978 0.159847 7.02978 0.0598473Z"/>
<path id="path114_fill" d="M 3.5 0.0520259C 2.6 -0.147974 1.5 0.252025 0.7 0.852025C 0.3 1.15203 3.05176e-06 1.35203 3.05176e-06 1.85203C 3.05176e-06 2.15203 0.100003 2.55203 0.500003 2.55203C 1 2.55203 1.5 2.35203 2 2.15203C 2.8 1.95203 3.5 1.75203 4 1.05203C 4.1 0.652026 3.9 0.152026 3.5 0.0520259Z"/>
<path id="path115_fill" d="M 5.78338 0.0110238C 4.78338 -0.0889762 3.98338 0.511024 3.18338 1.01102C 2.18338 1.61102 1.28339 2.21102 0.283387 2.71102C -0.216613 2.91102 -0.0166141 3.81102 0.583386 3.71102C 1.68339 3.61102 2.48339 3.31103 3.48339 2.81103C 4.38339 2.31103 5.48338 1.91102 6.28338 1.21102C 6.88338 0.911025 6.38338 0.111024 5.78338 0.0110238Z"/>
<path id="path116_fill" d="M 3.70731 0.44083C 3.40731 -0.55917 1.10731 0.440828 0.507308 0.540828C -0.392691 0.740828 0.00731003 2.14083 0.90731 1.94083C 1.50731 1.74083 2.20731 1.64083 2.80731 1.34083C 3.20731 1.24083 3.90731 0.94083 3.70731 0.44083Z"/>
<path id="path117_fill" d="M 2.64 0.7C 2.54 0.3 2.14 -7.62939e-07 1.74 -7.62939e-07C 1.14 -7.62939e-07 0.739997 0.200002 0.239997 0.600002C -0.160003 0.900002 -0.06 1.7 0.54 1.6C 1.04 1.5 1.44 1.6 1.94 1.5C 2.34 1.4 2.84 1 2.64 0.7Z"/>
<path id="path118_fill" d="M 10.8 7.62726C 9.3 6.32726 7.5 5.52725 5.8 4.42725C 3.8 3.12725 2.2 1.42725 0.299998 0.0272512C 0.199998 -0.0727488 -7.62939e-07 0.127256 -7.62939e-07 0.227256C 0.599999 2.42726 2.4 4.02725 4.1 5.42725C 5.9 6.92725 8 8.32725 10.4 8.32725C 10.8 8.32725 11.1 7.82726 10.8 7.62726Z"/>
<path id="path119_fill" d="M 3.22705 1.2C 3.22705 1.2 2.92705 0.700003 3.02705 0.900003C 2.92705 0.600003 2.62705 0.399997 2.32705 0.299997C 1.82705 0.0999969 1.22705 1.52588e-06 0.627051 1.52588e-06C 0.027051 1.52588e-06 -0.272952 0.899998 0.327048 1.2C 0.727048 1.4 1.22705 1.6 1.62705 1.8C 1.82705 1.9 2.12705 1.9 2.42705 1.9C 2.62705 1.8 2.72705 1.9 3.02705 1.8C 3.22705 1.7 3.32705 1.4 3.22705 1.2Z"/>
<path id="path120_fill" d="M 6.56326 0.130685C 5.56326 -0.269315 4.46326 0.33069 3.56326 0.83069C 2.36326 1.43069 1.16327 2.13069 0.163268 3.03069C -0.236732 3.33069 0.163268 3.93069 0.663268 3.83069C 1.96327 3.63069 3.16327 3.13069 4.36327 2.63069C 5.36327 2.23069 6.46326 1.83068 6.96326 0.730684C 6.96326 0.430684 6.76326 0.230685 6.56326 0.130685Z"/>
<path id="path121_fill" d="M 3.66383 0.00693224C 2.36383 -0.0930678 1.16382 0.906935 0.263824 1.80694C -0.536176 2.60694 0.663829 3.80693 1.46383 3.00693C 2.36383 2.20693 3.46383 1.70693 3.96383 0.506932C 4.16383 0.206932 3.86383 0.00693224 3.66383 0.00693224Z"/>
<path id="path122_fill" d="M 4.47047 0.578274C 3.47047 -0.921726 1.17048 0.878273 0.270475 1.67827C -0.429525 2.27827 0.370471 3.27827 1.07047 3.07827C 1.87047 2.87827 2.57047 2.47827 3.37047 2.17827C 3.87047 1.97827 4.97047 1.17827 4.47047 0.578274Z"/>
<path id="path123_fill" d="M 1.04829 0.0392305C 0.94829 0.0392305 0.848287 0.139229 0.748287 0.139229C 0.0482873 0.339229 -0.251713 1.33923 0.248287 1.83923C 0.848287 2.43923 1.74828 2.13923 1.94828 1.33923C 1.94828 1.23923 2.04829 1.13923 2.04829 1.03923C 2.34829 0.43923 1.64829 -0.16077 1.04829 0.0392305Z"/>
<path id="path124_fill" d="M 1.61962 2.19397C 1.41962 1.69397 1.21962 1.19397 1.31962 0.59397C 1.41962 -0.10603 0.219615 -0.206027 0.119615 0.393973C -0.0803848 1.19397 -0.0803832 2.19397 0.519617 2.79397C 0.919617 3.29397 1.91962 2.79397 1.61962 2.19397Z"/>
<path id="path125_fill" d="M 1.04375 0.079799C 0.243745 0.479799 -0.356254 1.7798 0.243746 2.5798C 0.443746 2.7798 0.643747 2.8798 0.943747 2.6798C 1.44375 2.1798 1.64375 1.47979 1.94375 0.979793C 2.14375 0.379793 1.54375 -0.220201 1.04375 0.079799Z"/>
<path id="path126_fill" d="M 1.5 0.512788C 1.5 0.0127875 0.799998 -0.187208 0.499998 0.212792C 0.0999985 0.812792 -1.52588e-06 1.61279 -1.52588e-06 2.31279C 0.0999985 3.01279 1.2 3.31279 1.3 2.51279C 1.5 1.81279 1.5 1.11279 1.5 0.512788Z"/>
<path id="path127_fill" d="M 1.00773 0.355268C 0.807727 -0.244732 -0.0922734 -0.0447294 0.00772656 0.655271C 0.107727 1.35527 0.407727 2.15527 1.20773 2.35527C 1.40773 2.35527 1.60773 2.25527 1.60773 2.05527C 1.60773 1.35527 1.20773 0.855268 1.00773 0.355268Z"/>
<path id="path128_fill" d="M 1.1059 0.0999969C 0.805902 -0.100003 0.305899 0 0.305899 0.4C 0.305899 1.1 0.1059 1.8 0.00590018 2.5C -0.0940998 3.3 1.1059 3.5 1.4059 2.9C 2.0059 2.1 1.9059 0.799997 1.1059 0.0999969Z"/>
<path id="path129_fill" d="M 0.999999 0.256961C 0.799999 -0.243039 -7.62939e-07 0.0569561 -7.62939e-07 0.556956C -7.62939e-07 0.956956 1.52737e-06 1.35696 0.100002 1.75696C 0.300002 2.45696 1.4 2.35696 1.4 1.55696C 1.3 1.05696 1.2 0.656961 0.999999 0.256961Z"/>
<path id="path130_fill" d="M 1.46386 0.449998C 1.26386 -0.150002 0.363861 -0.150002 0.163861 0.449998C -0.0361385 1.05 -0.136134 1.85 0.363866 2.35C 0.563866 2.55 1.06386 2.55 1.26386 2.35C 1.86386 1.95 1.66386 1.15 1.46386 0.449998Z"/>
<path id="path131_fill" d="M 1.93137 1.24635C 1.83137 0.746354 1.53137 0.446355 1.13137 0.146355C 0.331372 -0.453645 -0.468631 0.946357 0.331369 1.54636C 0.431369 1.64636 0.531374 1.64635 0.531374 1.74635C 0.631374 2.04635 0.731368 2.14636 0.931368 2.34636C 1.13137 2.44636 1.33137 2.44636 1.53137 2.34636C 1.93137 2.14636 2.03137 1.74635 1.93137 1.24635Z"/>
<path id="path132_fill" d="M 6.98339 -3.05176e-06C 5.88339 0.0999969 4.98339 0.499997 4.08339 0.999997C 2.78339 1.7 1.48338 2.1 0.283384 2.8C -0.216616 3.1 -0.0166126 3.8 0.583387 3.8C 1.78339 3.8 2.98339 3.3 4.08339 2.8C 5.38339 2.2 6.58338 1.70001 7.38338 0.400006C 7.38338 0.300006 7.18339 -3.05176e-06 6.98339 -3.05176e-06Z"/>
<path id="path133_fill" d="M 2.39455 0.0661754C 1.69455 -0.233825 0.894553 0.566178 0.394553 0.866178C -0.505447 1.36618 0.294556 2.76619 1.19456 2.26619C 1.79456 1.96619 2.89455 1.36618 2.79455 0.566175C 2.69455 0.266175 2.59455 0.0661754 2.39455 0.0661754Z"/>
<path id="path134_fill" d="M 3.225 0C 2.725 0.1 2.325 0.300006 1.925 0.600006C 1.525 0.900006 1.025 1 0.525003 1C -0.174997 1 -0.174997 2.10001 0.525003 2.10001C 1.725 2.10001 3.225 1.59999 3.525 0.399994C 3.625 0.199994 3.425 0 3.225 0Z"/>
<path id="path135_fill" d="M 3.75327 0.351099C 3.15327 -0.748901 0.953273 1.0511 0.353273 1.4511C -0.446727 1.9511 0.25327 3.25111 1.05327 2.75111C 1.65327 2.35111 2.25327 1.9511 2.95327 1.6511C 3.35327 1.3511 4.05327 0.851099 3.75327 0.351099Z"/>
<path id="path136_fill" d="M 1.23347 3.05176e-06C 0.733471 3.05176e-06 0.333472 0.399997 0.133472 0.899997C -0.466528 1.8 1.13347 2.5 1.43347 1.5C 1.53347 1.2 1.73347 0.899994 1.73347 0.599994C 1.73347 0.299994 1.53347 3.05176e-06 1.23347 3.05176e-06Z"/>
<path id="path137_fill" d="M 2.03714 0.299997C 1.93714 0.0999969 1.83714 -6.10352e-06 1.63714 -6.10352e-06C 1.13714 -6.10352e-06 0.737147 0.4 0.337147 0.6C -0.362853 0.9 0.137147 1.9 0.837147 1.8C 1.33715 1.7 2.23714 1.1 2.03714 0.299997Z"/>
<path id="path138_fill" d="M 3.12871 0.199142C 2.52871 -0.400858 1.62871 0.499145 1.22871 0.999145C 0.728709 1.49915 0.328704 2.29914 0.0287042 2.89914C -0.171296 3.49914 0.728704 3.79915 1.0287 3.29915C 1.3287 2.59915 1.92871 2.19914 2.42871 1.69914C 2.92871 1.39914 3.72871 0.799142 3.12871 0.199142Z"/>
<path id="path139_fill" d="M 1.575 0.0222629C 0.975003 0.222263 0.375003 0.522269 0.0750031 1.12227C -0.124997 1.52227 0.0750015 2.22226 0.675002 2.22226C 0.875002 2.22226 1.075 2.22227 1.175 2.12227C 1.575 2.02227 1.875 1.82226 2.175 1.52226C 2.975 1.02226 2.475 -0.177737 1.575 0.0222629Z"/>
<path id="path140_fill" d="M 2.2727 0.078601C 1.3727 -0.221399 0.572691 0.378607 0.0726911 1.17861C -0.227309 1.67861 0.472694 2.1786 0.872694 1.7786C 1.27269 1.3786 1.7727 1.3786 2.2727 1.2786C 2.8727 1.0786 2.7727 0.278601 2.2727 0.078601Z"/>
<path id="path141_fill" d="M 2.00474 1.04593C 1.80474 0.845928 1.60474 0.645922 1.40474 0.445922C 1.10474 0.245922 0.904742 0.145928 0.604742 0.0459276C 0.204742 -0.154072 -0.195258 0.345934 0.104742 0.645934C 0.504742 0.945934 0.804742 1.34592 1.10474 1.74592C 1.40474 2.14592 1.70474 2.64592 2.30474 2.74592C 2.50474 2.74592 2.80474 2.64593 2.80474 2.34593C 2.70474 1.84593 2.30474 1.44593 2.00474 1.04593Z"/>
<path id="path142_fill" d="M 0.872014 0.159424C 0.372014 -0.340576 -0.327987 0.459421 0.172013 0.859421C 0.572013 1.25942 0.872014 1.55942 1.37201 1.85942C 1.57201 1.95942 1.77201 1.95942 1.87201 1.85942C 2.67201 1.35942 1.27201 0.559424 0.872014 0.159424Z"/>
<path id="path143_fill" d="M 0.812937 0.0915147C 0.412937 -0.208485 -0.0870621 0.291506 0.0129379 0.691506C 0.112938 0.991506 0.112936 1.29151 0.112936 1.59151C 0.112936 2.39151 1.31294 2.59151 1.51294 1.79151C 1.61294 1.09151 1.51294 0.591515 0.812937 0.0915147Z"/>
<path id="path144_fill" d="M 0.889443 0.3C 0.789443 -0.1 0.0894435 -0.1 0.0894435 0.3C -0.0105565 0.8 -0.110558 1.3 0.289442 1.6C 0.389442 1.7 0.589442 1.7 0.789442 1.6C 1.08944 1.2 0.989443 0.7 0.889443 0.3Z"/>
<path id="path145_fill" d="M 0.396606 0.159421C -0.00339442 0.559421 -0.203393 1.15943 0.296607 1.55943C 0.496607 1.75943 0.696606 1.65942 0.896606 1.45942C 0.996606 1.25942 1.0966 1.05943 1.1966 0.859434C 1.5966 0.459434 0.896606 -0.340579 0.396606 0.159421Z"/>
<path id="path146_fill" d="M 3.54564 1.51102C 3.34564 0.611022 2.74565 0.111022 1.84565 0.0110222C 1.14565 -0.0889778 0.545642 0.511022 0.145642 1.01102C -0.354358 1.61102 0.545642 2.31102 1.14564 2.01102C 1.24564 1.91102 1.34565 1.91103 1.44565 1.91103C 1.64565 1.91103 1.54564 1.91103 1.54564 1.91103C 1.74564 2.01103 1.94564 2.21103 2.14564 2.41103C 2.74564 3.01103 3.64564 2.31102 3.54564 1.51102Z"/>
</defs>
</svg>
